<?xml version="1.0" standalone="no"?>
<!DOCTYPE svg PUBLIC "-//W3C//DTD SVG 20010904//EN"
 "http://www.w3.org/TR/2001/REC-SVG-20010904/DTD/svg10.dtd">
<svg version="1.0" xmlns="http://www.w3.org/2000/svg"
 width="1200.000000pt" height="1200.000000pt" viewBox="0 0 1200.000000 1200.000000"
 preserveAspectRatio="xMidYMid meet">
<metadata>
Created by potrace 1.16, written by Peter Selinger 2001-2019
</metadata>
<g transform="translate(0.000000,1200.000000) scale(0.100000,-0.100000)"
fill="#000000" stroke="none">
<path d="M0 6146 c0 -5183 2 -5855 15 -5866 8 -7 20 -30 27 -52 6 -22 18 -42
25 -45 15 -6 18 -43 3 -43 -5 0 -10 -11 -10 -25 0 -19 5 -25 23 -26 20 0 20
-1 3 -8 -17 -7 -17 -8 -2 -23 9 -9 16 -22 16 -29 0 -19 58 -3 110 31 26 17 52
30 58 30 7 0 21 11 33 24 14 17 27 22 46 18 24 -4 25 -3 19 19 -4 13 -9 40
-13 59 -3 19 -10 40 -15 47 -5 6 -6 23 -2 37 5 21 3 26 -12 24 -51 -4 -73 3
-80 25 -10 28 -8 38 22 104 26 57 39 61 49 14 3 -16 12 -34 19 -40 6 -6 13
-29 15 -53 2 -47 15 -65 52 -75 32 -9 109 -8 135 1 33 12 40 -31 10 -64 -28
-30 -22 -61 13 -67 13 -2 43 -16 67 -32 38 -26 46 -28 68 -18 14 7 26 16 26
20 0 5 -5 5 -11 2 -5 -4 -28 5 -50 20 -30 21 -39 34 -39 56 0 16 -4 29 -10 29
-5 0 -10 10 -10 23 0 13 -11 34 -25 47 -26 25 -32 40 -15 40 6 0 10 -6 10 -13
0 -7 10 -17 22 -22 13 -6 24 -20 26 -33 3 -17 10 -22 32 -22 16 0 41 -5 56
-11 21 -7 34 -7 51 2 18 9 29 10 48 1 36 -17 42 -15 61 13 13 20 14 28 4 40
-21 26 18 31 64 8 58 -30 100 -47 108 -45 4 1 5 -5 2 -13 -8 -21 46 -20 84 2
27 15 30 15 53 0 20 -14 20 -17 5 -17 -10 0 -16 -5 -14 -12 8 -23 28 -19 59
11 17 17 35 31 41 31 6 0 8 10 4 25 -8 31 -4 31 29 1 25 -24 26 -26 11 -55
-21 -39 -21 -81 -1 -81 8 0 15 -7 15 -15 0 -8 9 -15 19 -15 11 0 23 -5 26 -10
3 -6 1 -10 -4 -10 -20 0 -11 -28 9 -35 28 -9 48 10 56 51 6 30 2 39 -35 79
-38 41 -46 56 -42 78 1 5 -9 29 -23 55 -30 58 -39 107 -23 119 20 15 57 13 57
-3 0 -16 31 -19 45 -5 9 8 122 71 128 71 1 0 1 -44 1 -98 -1 -53 0 -113 2
-132 5 -34 7 -35 51 -38 48 -3 45 -5 118 67 19 18 28 21 39 12 11 -9 19 -4 40
24 40 52 50 42 15 -15 -27 -44 -32 -79 -9 -65 21 13 39 -8 36 -41 -1 -20 3
-39 11 -45 8 -7 13 -34 13 -70 0 -47 4 -60 19 -69 56 -29 136 20 147 92 8 49
53 94 109 110 22 6 44 15 50 20 5 4 20 8 33 8 14 0 33 11 44 26 33 42 41 13
12 -46 -14 -30 -30 -65 -35 -77 -9 -25 -38 -30 -69 -11 -26 17 -62 -4 -88 -51
-12 -20 -35 -51 -52 -69 -16 -17 -30 -36 -30 -42 0 -7 221 -10 655 -10 643 0
656 0 645 19 -9 18 -20 19 -122 16 -120 -3 -158 -7 -177 -19 -6 -4 -18 -2 -26
4 -11 9 -23 9 -46 1 -53 -18 -103 -13 -143 14 -43 29 -64 31 -135 9 -41 -12
-78 -14 -169 -9 -65 3 -148 6 -187 6 l-70 0 27 20 c15 11 49 52 75 90 48 73
88 109 120 109 17 -1 17 -1 0 -14 -10 -8 -20 -24 -22 -37 -3 -13 -7 -35 -10
-49 -3 -14 0 -33 7 -43 12 -16 16 -15 65 8 29 14 66 28 84 32 29 5 31 4 24
-16 -3 -11 -3 -30 0 -41 9 -28 53 -27 64 2 4 12 28 31 52 42 34 16 50 32 69
71 41 80 38 78 70 51 16 -13 35 -26 42 -28 10 -4 8 -14 -6 -45 -29 -66 -4 -81
71 -41 l42 23 39 -38 c21 -20 43 -37 50 -37 6 0 16 -9 22 -20 11 -21 51 -26
98 -14 26 7 30 24 5 24 -15 0 -15 2 -4 9 11 7 4 12 -25 20 -53 15 -56 14 -45
-8 17 -31 -24 -15 -55 21 -31 37 -25 44 23 30 21 -6 64 -16 97 -23 32 -7 64
-19 71 -26 32 -31 79 -3 91 53 7 37 -28 86 -60 83 -36 -2 -47 1 -41 11 4 6 11
7 17 4 7 -4 8 -2 4 4 -4 7 -27 12 -51 12 -50 0 -77 8 -69 21 7 12 151 11 174
-1 12 -7 17 -16 13 -27 -4 -9 -2 -14 3 -11 5 3 18 2 29 -3 19 -7 19 -8 -2 -8
-29 -1 -29 -4 2 -37 19 -21 28 -24 38 -15 11 9 17 3 30 -29 13 -35 25 -44 88
-75 41 -19 79 -35 85 -35 7 0 14 -6 17 -12 3 -10 9 -10 23 -2 27 16 30 62 5
94 l-20 27 51 6 c28 4 58 2 68 -3 11 -6 39 -4 79 6 55 12 65 12 92 -2 40 -20
83 -15 88 11 2 11 8 23 15 27 8 6 8 8 0 8 -23 0 -24 32 -3 77 11 25 23 43 26
40 2 -3 0 -14 -6 -25 -7 -14 -7 -24 2 -36 11 -14 14 -12 30 15 14 25 14 30 3
26 -10 -4 -13 -1 -10 7 3 8 1 17 -5 21 -6 3 -11 11 -11 16 0 6 4 8 9 4 5 -3
12 4 16 14 7 22 59 81 71 81 14 0 -3 -254 -20 -291 l-16 -34 4 38 c4 27 1 37
-9 37 -10 0 -12 -9 -9 -32 10 -69 -76 -141 -157 -131 -24 3 -54 -3 -88 -18
-43 -18 -58 -20 -85 -12 -24 7 -41 7 -62 -3 -26 -11 -16 -12 86 -13 78 -1 120
3 128 11 9 9 12 9 12 0 0 -7 11 -12 25 -12 19 0 23 4 19 18 -5 16 -5 16 9 -1
13 -16 45 -17 443 -17 l429 1 0 35 c0 19 -5 38 -11 42 -6 4 -14 16 -18 27 -7
24 -50 75 -62 75 -5 0 -20 -14 -33 -31 -14 -17 -47 -46 -74 -64 -30 -21 -44
-35 -35 -38 7 -3 2 -6 -12 -6 -15 -1 -31 -6 -37 -12 -8 -8 -21 -8 -47 1 -20 6
-42 10 -49 7 -20 -7 -50 13 -39 26 5 7 12 38 16 71 3 32 13 67 20 78 8 11 12
26 10 33 -3 7 -1 16 5 20 6 3 11 0 11 -7 1 -7 7 -2 14 11 14 25 14 24 27 -24
17 -58 41 -74 37 -23 -3 32 -2 33 30 30 26 -3 34 1 41 20 8 18 10 19 10 5 1
-11 7 -17 13 -14 14 5 14 11 3 75 -7 41 -6 43 12 34 22 -12 80 9 89 33 3 8 17
15 30 15 27 0 30 8 11 33 -8 11 -29 19 -57 21 -25 2 -64 8 -88 15 -42 12 -43
14 -42 49 3 58 -8 82 -39 82 -29 0 -68 19 -41 20 12 1 11 3 -2 11 -17 9 -17
11 2 31 11 12 20 25 20 30 0 12 80 49 91 42 6 -3 7 -18 4 -34 -4 -19 -1 -33
10 -44 20 -20 22 -20 75 -1 23 8 52 15 64 14 14 -1 9 -4 -14 -11 -55 -16 -80
-27 -80 -36 0 -5 18 -21 39 -35 22 -15 69 -53 104 -87 36 -33 71 -60 80 -60 8
0 41 32 73 72 61 74 80 75 50 3 -23 -54 -21 -58 25 -50 53 9 45 -9 -11 -26
-45 -14 -66 -33 -75 -71 -6 -24 -3 -28 37 -46 41 -18 99 -33 141 -38 10 -1 27
-11 38 -23 23 -25 48 -27 75 -6 13 10 44 14 95 15 68 0 77 -2 88 -22 16 -30
60 -52 67 -33 4 9 12 6 29 -11 13 -13 31 -24 40 -24 8 0 31 -18 51 -40 20 -22
38 -39 40 -37 2 1 -3 34 -11 72 -16 77 -19 118 -8 129 9 9 72 -179 73 -215 0
-31 56 -112 73 -106 21 7 20 68 -3 109 l-21 38 22 0 c20 0 21 2 7 12 -23 19
-33 114 -13 125 12 7 7 19 -30 68 -50 65 -101 163 -91 172 4 4 43 -32 89 -79
63 -66 91 -89 122 -97 59 -16 66 -14 113 29 24 22 47 40 52 40 6 0 10 7 10 14
0 8 16 27 36 42 28 22 37 25 44 14 6 -10 14 -6 34 16 21 23 27 26 35 15 11
-17 -10 -95 -33 -120 -9 -10 -16 -24 -16 -33 0 -23 42 -120 62 -143 9 -11 25
-30 36 -42 17 -21 61 -43 83 -43 6 0 19 23 31 50 21 50 46 72 28 24 -20 -50
-9 -58 16 -11 18 35 23 57 19 78 -4 17 -2 29 3 29 6 0 16 16 22 35 9 27 17 35
36 35 20 0 29 -10 49 -55 34 -78 55 -75 55 10 0 36 4 65 8 65 16 0 42 -60 42
-97 0 -29 4 -40 15 -40 16 0 85 70 85 87 0 19 20 10 82 -35 34 -25 68 -45 76
-45 8 0 26 9 42 20 47 34 75 40 99 24 18 -13 21 -13 21 -1 0 10 7 13 20 10 31
-8 25 -41 -7 -45 -22 -2 -33 -13 -50 -50 -12 -25 -27 -49 -32 -53 -6 -3 -11
-14 -11 -24 0 -19 39 -30 110 -31 l35 -1 -27 -23 c-25 -23 -32 -40 -29 -78 1
-24 28 -23 93 2 82 31 84 34 60 65 -12 14 -28 51 -37 80 -8 30 -20 57 -25 60
-5 3 -17 22 -26 41 -12 26 -14 38 -6 46 13 13 36 -10 87 -93 38 -61 78 -90 97
-71 7 7 20 12 30 12 33 0 66 29 64 55 -3 23 26 45 58 45 7 0 24 14 37 32 51
67 82 83 140 73 32 -6 38 -11 49 -48 15 -53 36 -77 67 -77 12 0 23 -4 23 -9 0
-5 23 -14 52 -21 47 -10 55 -9 80 10 15 11 32 20 37 20 15 0 42 45 62 102 l16
49 17 -26 c9 -14 12 -25 6 -25 -5 0 -10 -15 -10 -34 0 -19 -11 -57 -25 -84
-30 -59 -32 -93 -7 -115 31 -28 39 -20 47 49 4 37 13 85 21 107 8 22 12 49 8
59 -3 11 0 18 8 18 7 0 19 10 26 21 10 16 17 18 25 10 19 -19 56 -12 73 14 15
23 15 27 -1 51 -9 14 -35 44 -57 66 -39 39 -40 41 -13 34 58 -15 95 -59 95
-114 0 -35 -21 -65 -65 -92 -27 -16 -38 -33 -50 -73 -18 -62 -19 -118 -2 -139
9 -13 23 -15 60 -11 39 5 53 12 72 37 20 27 24 45 28 135 3 56 10 108 16 114
5 5 25 10 42 9 25 -1 41 -10 69 -43 34 -40 38 -42 76 -36 l39 6 -4 -62 c-3
-59 -2 -63 30 -90 l34 -29 -39 7 c-33 5 -38 4 -32 -10 3 -9 6 -21 6 -26 0 -5
24 -34 54 -64 38 -39 62 -55 80 -55 14 0 26 5 26 10 0 6 7 10 15 10 8 0 15 3
15 6 0 15 -94 134 -106 134 -7 0 -18 9 -24 20 -13 25 -10 25 60 -1 57 -21 90
-55 90 -96 0 -10 7 -29 16 -41 19 -28 39 -30 24 -3 -18 34 -12 76 15 101 20
19 32 22 65 17 22 -3 40 -2 40 2 0 12 -67 120 -95 152 -25 31 -33 59 -16 59 5
0 12 -6 15 -12 6 -16 36 18 36 41 0 24 46 133 60 141 8 5 10 18 5 38 -3 17 -2
33 4 36 16 10 86 -30 106 -60 9 -15 29 -37 43 -49 18 -15 23 -27 18 -40 -6
-16 -8 -17 -24 -1 -10 9 -24 16 -31 16 -7 0 -29 11 -49 25 l-37 25 -12 -27
c-11 -26 -10 -30 19 -55 34 -30 31 -56 -5 -36 -12 6 -27 18 -33 26 -10 14 -13
13 -23 -6 -13 -25 -14 -59 -2 -67 11 -6 34 29 25 37 -2 3 6 3 20 1 31 -6 50
-28 65 -75 14 -43 29 -57 42 -37 14 22 11 51 -8 71 -19 22 -12 32 16 23 11 -3
18 -12 15 -19 -3 -7 2 -16 10 -19 9 -4 16 -16 16 -27 0 -12 -4 -18 -10 -15 -7
4 -8 -3 -4 -22 4 -15 11 -30 16 -32 5 -2 13 -14 18 -27 12 -30 28 -31 32 -1 5
39 23 20 31 -35 12 -85 57 -102 111 -43 18 19 40 35 49 35 20 0 77 84 77 112
0 10 5 18 10 18 6 0 10 -4 10 -9 0 -5 9 -11 20 -14 11 -3 20 -2 20 3 0 16 34
20 50 5 9 -8 24 -15 34 -15 28 0 58 20 52 36 -3 8 5 21 19 30 14 9 28 27 31
40 9 36 21 29 48 -25 29 -56 99 -121 131 -121 12 0 32 9 45 20 28 25 41 18 34
-19 -7 -34 11 -50 33 -28 12 11 12 19 4 35 -6 11 -11 42 -11 68 l0 47 54 -7
c34 -4 57 -2 61 4 4 6 14 9 23 6 10 -3 28 3 41 13 l25 19 28 -45 c16 -25 32
-43 35 -40 10 11 45 -14 40 -27 -6 -16 24 -43 58 -52 35 -9 50 13 50 72 0 46
-3 54 -35 80 -67 55 -87 88 -78 130 6 32 25 26 20 -6 -5 -35 14 -63 38 -55 9
3 27 -4 40 -15 13 -11 29 -20 35 -20 7 0 25 -16 39 -35 26 -34 67 -47 81 -26
3 6 18 16 33 23 24 12 33 12 70 -5 28 -11 47 -28 54 -45 5 -15 14 -35 19 -45
7 -12 5 -17 -6 -17 -16 0 -34 -29 -28 -47 2 -6 -1 -14 -6 -18 -25 -15 -9 -25
31 -21 24 3 48 1 55 -6 10 -8 17 -6 28 8 8 10 15 26 15 34 0 8 18 26 40 40 22
14 40 30 40 36 0 13 32 44 46 44 6 0 19 -6 29 -14 18 -13 17 -16 -24 -70 -58
-74 -64 -122 -27 -200 l27 -56 60 0 c55 0 59 1 50 19 -16 29 -1 32 23 5 21
-25 22 -25 176 -22 l155 3 -75 23 c-112 35 -106 32 -91 41 7 5 12 12 12 17 -1
5 31 12 71 15 122 11 205 39 164 55 -26 10 -8 24 30 24 32 0 34 2 24 20 -16
29 -8 36 62 50 35 7 75 19 90 27 15 7 42 13 60 13 28 0 96 27 148 59 8 5 26
14 40 20 l25 11 -25 -4 c-14 -3 -36 1 -49 8 -23 13 -23 13 22 40 26 14 53 36
63 49 16 22 16 21 10 -15 -6 -31 -4 -37 8 -32 12 4 15 21 14 69 -1 76 1 75
-136 75 -51 0 -102 5 -113 10 -42 23 -5 99 42 87 12 -3 44 5 74 19 68 30 81
30 31 -1 -46 -28 -55 -41 -49 -66 6 -21 17 -25 96 -34 l57 -6 0 5710 0 5711
-2020 0 c-1340 0 -2020 -3 -2020 -10 0 -12 -57 -13 -64 -1 -8 13 -136 13 -136
0 0 -7 -16 -9 -47 -4 -27 4 -119 9 -205 10 l-157 3 -15 -45 c-15 -43 -15 -45
4 -50 11 -3 20 -9 20 -13 0 -5 18 -11 40 -15 22 -4 40 -12 40 -19 0 -6 21 -18
48 -25 89 -24 105 -31 118 -50 14 -19 84 -34 81 -17 -3 15 66 33 71 18 2 -7
21 -12 43 -12 21 0 39 -5 39 -10 0 -12 48 -3 67 13 9 6 13 6 13 -2 0 -6 9 -11
20 -11 26 0 25 11 -1 44 -12 15 -20 28 -18 30 24 18 77 28 118 22 27 -4 71 -2
97 4 63 14 117 5 148 -27 14 -13 29 -22 35 -19 5 3 16 3 25 0 12 -5 14 -10 6
-19 -8 -10 -6 -17 9 -27 18 -13 18 -15 3 -34 -10 -11 -48 -36 -86 -55 -37 -19
-76 -44 -86 -56 -13 -16 -28 -23 -54 -23 l-36 0 0 -88 0 -88 36 -32 c25 -23
46 -32 70 -32 19 0 34 5 34 10 0 6 -18 10 -40 10 -29 0 -40 4 -40 15 0 13 10
16 48 14 61 -3 92 23 92 76 0 31 3 35 25 35 18 0 25 5 25 19 0 11 4 22 8 25 9
5 227 8 285 3 28 -2 38 1 42 14 3 9 15 19 25 22 13 3 18 1 13 -5 -4 -8 4 -8
28 -3 19 5 63 10 99 10 36 1 75 5 88 9 13 5 22 3 22 -3 0 -6 10 -11 23 -11 20
-1 20 -2 -6 -16 -22 -12 -28 -21 -23 -37 3 -12 6 -28 6 -34 0 -7 5 -13 10 -13
6 0 10 7 10 15 0 14 6 17 28 14 4 -1 6 -6 4 -12 -4 -15 21 -28 29 -15 4 6 29
11 55 12 38 1 55 7 78 29 17 15 38 27 47 27 9 0 22 7 30 16 10 12 27 15 71 12
41 -2 61 1 67 10 11 18 127 13 123 -6 -1 -6 1 -11 5 -10 5 0 16 -2 26 -7 12
-5 23 0 37 18 13 17 27 23 39 20 11 -3 30 2 42 11 25 17 46 10 87 -27 19 -18
26 -19 42 -9 11 6 26 9 35 6 8 -3 15 -1 15 5 0 6 6 11 14 11 7 0 26 6 41 14
15 8 33 12 40 10 6 -3 24 0 38 5 15 6 27 7 27 2 0 -5 17 -5 38 -2 30 6 75 6
114 2 3 -1 8 -9 10 -18 3 -16 6 -15 23 5 22 25 55 30 55 7 0 -8 -4 -15 -10
-15 -5 0 -7 -7 -4 -15 4 -8 17 -15 30 -15 19 0 24 -5 24 -24 0 -13 -7 -29 -15
-36 -8 -7 -12 -17 -9 -22 3 -5 -3 -19 -13 -31 -33 -38 -44 -74 -27 -88 8 -7
13 -18 10 -25 -3 -7 -2 -14 2 -16 30 -13 48 -108 21 -108 -5 0 -9 -6 -9 -14 0
-11 -8 -12 -40 -4 -39 10 -53 31 -28 41 10 4 10 6 1 6 -7 1 -13 6 -13 12 0 6
-14 24 -31 40 -27 25 -39 29 -90 29 -43 0 -59 -4 -59 -14 0 -7 -7 -19 -15 -26
-21 -17 -125 4 -125 26 0 8 -6 14 -14 14 -15 0 -26 30 -26 71 0 23 -5 28 -37
32 -21 3 -52 9 -70 12 -26 6 -32 4 -38 -14 -3 -11 -18 -30 -32 -41 -22 -17
-24 -25 -19 -55 6 -28 4 -35 -9 -35 -8 0 -21 -11 -27 -25 -6 -14 -17 -25 -23
-25 -7 0 -26 -7 -41 -15 -16 -8 -36 -15 -44 -15 -17 0 -36 -38 -46 -94 -6 -37
-8 -38 -41 -33 -67 11 -80 45 -38 95 21 25 23 31 9 36 -9 3 -24 6 -34 6 -11 0
-24 9 -30 20 -6 10 -26 22 -45 26 -19 3 -35 12 -35 19 0 8 -8 11 -20 8 -12 -3
-29 2 -40 12 -18 16 -23 17 -45 5 -27 -14 -24 -30 6 -30 10 0 19 -6 19 -14 0
-9 7 -12 19 -9 10 3 22 0 25 -6 5 -7 -19 -10 -72 -8 -50 1 -84 -2 -93 -10 -26
-21 -98 -32 -160 -23 -66 9 -119 29 -119 45 0 13 -55 65 -69 65 -6 0 -11 5
-11 10 0 6 -7 10 -15 10 -8 0 -15 -4 -15 -10 0 -5 -6 -10 -14 -10 -8 0 -21 -9
-29 -21 -16 -22 -79 -59 -101 -59 -8 0 -19 -6 -23 -14 -4 -7 -23 -17 -41 -21
-25 -5 -33 -3 -38 10 -4 10 -1 21 7 26 11 8 8 15 -18 37 -17 15 -33 39 -35 54
-5 44 -32 19 -37 -35 -1 -10 -115 4 -119 15 -2 4 -10 8 -18 8 -10 0 -14 -13
-14 -45 0 -59 -27 -85 -87 -85 -32 0 -43 4 -43 15 0 11 -11 15 -40 15 -22 0
-40 -4 -40 -10 0 -17 -39 -50 -60 -50 -11 0 -20 4 -20 8 0 5 -18 17 -40 27
-46 21 -52 42 -12 47 24 4 25 5 8 13 -11 5 -30 4 -47 -2 -22 -9 -31 -8 -40 3
-6 8 -19 14 -28 14 -19 1 -119 34 -128 44 -10 10 -51 7 -58 -5 -12 -19 -48
-26 -86 -18 -25 6 -55 4 -93 -6 -66 -17 -116 -19 -116 -5 0 20 -147 1 -178
-24 -8 -5 -22 -10 -33 -11 -26 -2 -32 -10 -31 -42 1 -40 6 -65 19 -87 5 -10 8
-39 5 -63 -3 -32 -1 -48 9 -54 9 -5 16 -3 21 9 4 10 6 1 5 -23 -2 -39 -3 -40
-44 -46 -23 -3 -50 -12 -60 -20 -10 -9 -35 -23 -55 -33 -20 -9 -40 -21 -44
-27 -4 -7 -34 -8 -89 -4 -56 5 -85 4 -89 -4 -11 -18 -83 -13 -123 9 -21 11
-46 20 -55 20 -10 0 -27 9 -38 20 -11 11 -20 16 -20 10 0 -13 -70 -13 -90 0
-13 9 -13 10 0 11 34 2 -39 17 -90 18 -46 1 -60 6 -85 28 -24 23 -26 28 -12
31 13 3 17 14 17 53 0 46 -3 51 -42 79 -22 16 -47 30 -55 30 -9 0 -13 15 -13
50 0 46 -2 50 -34 65 -19 9 -37 23 -40 31 -6 16 -36 19 -36 4 0 -5 -18 -10
-40 -10 -22 0 -40 5 -40 10 0 6 7 10 15 10 18 0 20 16 3 27 -7 4 -19 18 -26
31 -11 20 -10 22 13 22 35 0 31 16 -9 35 -19 9 -37 23 -40 31 -3 8 -14 14 -25
14 -11 0 -33 14 -50 31 -27 27 -37 30 -81 28 -29 -2 -55 2 -62 9 -13 13 -6 15
50 12 31 -1 32 0 32 39 0 23 5 41 10 41 6 0 10 -12 10 -26 0 -14 4 -23 10 -19
6 3 10 15 10 26 0 14 7 19 30 19 34 0 38 7 13 26 -17 12 -17 14 -2 26 9 7 19
23 22 35 5 21 4 21 -28 5 -21 -11 -30 -22 -27 -34 5 -20 -31 -41 -58 -33 -27
9 -25 23 5 31 14 3 25 13 25 21 0 19 40 52 62 53 26 0 68 22 68 35 0 6 11 22
24 34 13 12 26 37 29 54 3 18 8 40 12 50 7 16 -137 17 -2934 17 l-2941 0 0
-5854z m4315 5074 c0 -67 -1 -70 -27 -79 -31 -11 -39 -47 -13 -57 13 -5 13 -8
0 -27 -20 -29 -19 -49 3 -45 9 2 16 9 15 15 -1 6 4 13 11 16 18 7 35 -33 39
-91 3 -36 -1 -47 -20 -62 -15 -12 -23 -28 -23 -48 0 -17 -5 -34 -10 -37 -6 -3
-7 -17 -4 -31 4 -16 2 -24 -7 -25 -38 -4 -61 -1 -89 11 -23 10 -30 19 -30 41
0 21 -5 28 -22 31 -21 3 -23 9 -26 66 -2 46 -7 62 -17 62 -8 0 -15 9 -15 20 0
15 7 20 25 20 15 0 40 7 56 16 28 14 30 19 25 49 -11 59 12 125 63 177 25 26
51 47 56 48 6 0 10 -30 10 -70z m3927 -20 c51 0 58 -2 58 -19 0 -11 5 -23 10
-26 6 -3 10 -13 10 -20 0 -8 17 -31 37 -51 26 -26 38 -48 40 -73 2 -20 9 -38
15 -40 6 -2 -3 -10 -21 -17 -35 -15 -42 -47 -13 -63 9 -6 11 -11 5 -11 -7 0
-22 9 -34 21 -20 20 -20 21 -2 34 23 17 8 35 -33 38 -29 2 -29 1 -30 -55 -2
-50 -27 -118 -44 -118 -3 0 -23 9 -45 20 -22 11 -45 20 -52 20 -7 0 -13 9 -13
20 0 11 -4 20 -10 20 -17 0 1 30 19 30 21 1 54 47 47 66 -8 21 -26 17 -26 -5
0 -11 -9 -23 -21 -26 -24 -8 -34 -1 -34 23 0 14 -8 16 -50 13 -27 -1 -51 -7
-53 -12 -2 -5 -11 -9 -19 -9 -11 0 -13 6 -8 23 4 12 8 36 9 54 0 17 4 35 9 39
11 11 9 44 -4 44 -5 0 -7 5 -3 12 6 9 9 9 12 0 5 -17 31 -15 38 2 3 8 21 22
40 31 19 9 34 20 34 25 0 6 11 10 25 10 14 0 25 5 25 12 0 9 3 9 12 0 7 -7 38
-12 70 -12z m-5003 -130 c24 -6 39 -6 47 1 17 14 54 2 54 -17 0 -8 5 -14 10
-14 6 0 10 -5 10 -11 0 -7 7 -17 15 -23 9 -6 17 -21 18 -34 1 -14 8 -22 19
-22 10 0 21 -7 24 -15 4 -10 20 -15 44 -15 21 0 40 -4 42 -9 2 -4 47 -1 100 7
54 9 101 13 104 9 12 -11 -18 -131 -37 -149 -10 -10 -22 -18 -26 -18 -15 0
-32 -76 -26 -118 5 -38 3 -44 -16 -49 -11 -3 -21 -13 -21 -22 -1 -24 -48 -54
-95 -61 -37 -5 -40 -7 -37 -35 2 -16 8 -35 13 -41 14 -17 28 -114 17 -114 -25
0 -49 22 -43 41 4 11 2 19 -4 19 -6 0 -11 -5 -11 -11 0 -8 -4 -8 -12 -1 -16
12 -131 52 -153 52 -18 0 -20 17 -2 23 9 3 9 7 -2 20 -7 10 -19 17 -25 17 -17
0 -38 39 -31 59 4 13 -4 22 -32 34 -21 9 -49 16 -63 16 -68 -1 -99 5 -103 23
-4 15 -12 17 -50 12 -40 -6 -48 -3 -77 24 -17 17 -51 39 -76 49 -27 11 -44 24
-44 35 0 9 -11 30 -25 46 -22 26 -31 30 -73 29 -47 -2 -112 18 -112 34 0 5 11
9 25 9 25 0 33 14 15 25 -15 9 -2 25 21 25 10 0 19 5 19 10 0 6 8 18 19 29 15
15 32 18 102 16 46 -1 109 -9 139 -18 31 -9 56 -11 58 -6 2 5 39 9 83 9 70 0
79 2 79 18 0 13 12 22 40 31 49 15 54 43 10 61 -59 24 -3 41 69 20z m6402
-666 c31 -13 61 -24 68 -24 6 0 18 -11 27 -25 10 -16 26 -25 41 -25 19 0 24
-4 19 -17 -4 -10 6 -36 26 -67 63 -96 70 -110 82 -158 5 -21 1 -33 -14 -48
-25 -25 -26 -65 -2 -110 27 -51 28 -198 3 -326 -35 -172 -49 -232 -61 -255 -7
-12 -16 -87 -20 -168 -10 -166 -30 -283 -60 -338 -11 -21 -20 -46 -20 -55 0
-10 -11 -42 -25 -72 -14 -30 -25 -60 -25 -66 0 -6 -4 -8 -10 -5 -5 3 -7 0 -4
-8 3 -8 -2 -21 -10 -30 -8 -8 -13 -17 -10 -19 2 -3 -2 -11 -11 -18 -8 -7 -15
-20 -15 -29 -1 -20 -25 -53 -33 -44 -4 3 -7 -1 -7 -11 0 -18 -57 -108 -72
-114 -4 -2 -8 -8 -8 -14 0 -6 -18 -28 -40 -50 -22 -22 -40 -44 -40 -49 0 -5
-6 -9 -14 -9 -7 0 -22 -12 -31 -27 -17 -25 -17 -26 0 -19 15 5 16 4 5 -9 -7
-8 -16 -12 -21 -9 -5 3 -6 -2 -3 -10 4 -11 -5 -18 -38 -26 -50 -13 -68 -25
-93 -63 -10 -15 -20 -25 -23 -23 -7 7 -62 -26 -62 -37 0 -5 11 -2 25 7 33 21
38 20 18 -4 -10 -11 -23 -20 -29 -20 -7 0 -24 -16 -40 -35 -15 -19 -33 -35
-40 -35 -15 0 -24 -23 -24 -62 0 -43 -48 -88 -94 -88 -19 0 -41 -7 -50 -15 -8
-8 -19 -15 -25 -15 -6 0 -11 -4 -11 -10 0 -5 -7 -10 -15 -10 -8 0 -15 -4 -15
-10 0 -5 -33 -25 -73 -44 -40 -19 -85 -49 -100 -65 -15 -17 -36 -31 -46 -31
-11 0 -21 -9 -24 -22 -5 -16 7 -35 45 -77 68 -76 107 -161 115 -256 5 -68 9
-78 34 -96 37 -26 41 -43 29 -130 -8 -57 -16 -80 -35 -99 -18 -18 -25 -20 -25
-9 0 8 4 19 9 24 14 15 24 75 13 75 -6 0 -12 8 -14 18 -3 13 -8 9 -22 -17 -12
-23 -16 -44 -11 -65 3 -17 6 -44 6 -60 0 -15 16 -60 37 -100 30 -59 37 -82 38
-136 1 -36 5 -121 9 -190 4 -75 3 -135 -3 -151 -8 -21 -2 -51 33 -155 56 -166
88 -288 116 -444 41 -231 38 -1132 -5 -1455 -85 -631 -314 -1128 -691 -1499
-490 -482 -1197 -648 -2614 -615 -449 10 -633 27 -896 80 -408 83 -695 232
-962 498 -306 306 -525 713 -658 1226 -90 344 -127 669 -141 1240 -5 213 -3
283 11 385 21 160 49 309 81 432 17 66 22 104 16 115 -14 26 -23 254 -12 292
7 27 6 35 -11 49 -10 9 -19 24 -19 34 0 10 -11 25 -25 34 -28 18 -34 64 -14
107 13 28 58 57 89 57 28 0 60 17 60 32 0 7 -11 21 -26 33 -14 11 -29 37 -34
60 -13 52 5 141 35 176 17 21 24 49 33 121 11 103 40 179 90 241 44 55 33 70
-74 101 -60 17 -128 50 -152 74 -37 37 -103 64 -142 57 -51 -9 -88 23 -98 83
-6 37 -13 46 -47 65 -22 12 -42 24 -45 27 -3 3 -30 25 -60 50 -130 105 -321
304 -400 416 -8 12 -34 47 -57 77 -24 31 -43 63 -43 71 0 8 -5 18 -10 21 -9 5
-52 80 -55 95 -1 3 -9 21 -18 40 -9 19 -35 96 -58 170 -22 74 -51 164 -64 200
-13 36 -26 88 -29 117 -4 28 -13 68 -22 88 -9 23 -12 50 -9 73 4 23 3 32 -3
24 -6 -8 -13 17 -21 75 -13 91 -19 121 -44 213 -31 111 -51 277 -50 399 2 80
3 86 31 112 17 16 32 34 35 41 2 7 7 10 11 6 11 -9 -21 -66 -44 -78 -22 -12
-27 -30 -7 -30 8 0 12 -16 13 -47 0 -27 4 -88 8 -138 10 -120 31 -142 38 -41
2 22 9 41 16 44 11 3 12 -9 7 -62 -9 -85 8 -148 55 -197 29 -31 35 -45 36 -83
0 -25 6 -51 12 -58 5 -7 14 -31 18 -53 4 -22 17 -63 30 -92 13 -28 29 -75 35
-105 10 -47 34 -108 43 -108 6 0 -12 88 -32 155 -12 39 -26 97 -31 130 -10 61
-34 168 -44 195 -3 8 -8 56 -11 105 -6 118 -22 228 -41 289 -8 27 -15 70 -15
96 0 40 -4 48 -25 58 -14 6 -25 16 -25 21 0 5 -7 11 -16 13 -12 2 -3 15 32 48
37 35 46 40 42 23 -3 -12 0 -39 8 -60 l13 -38 1 47 c0 27 5 48 13 51 9 4 9 7
-1 15 -10 7 3 15 45 32 32 13 62 27 67 31 10 9 38 0 48 -15 5 -8 14 -7 28 2
12 7 32 17 46 22 43 17 28 -17 -16 -36 -39 -18 -52 -34 -27 -34 7 0 19 -17 26
-37 21 -60 90 -196 111 -218 81 -85 85 -88 88 -67 2 11 -8 58 -21 104 -14 45
-32 113 -42 149 -12 48 -27 78 -52 105 -29 33 -32 40 -18 42 10 2 20 0 24 -5
3 -5 28 -11 56 -12 52 -2 62 -10 70 -51 16 -74 66 -204 106 -275 25 -44 51
-96 59 -115 7 -19 25 -49 39 -66 14 -17 35 -46 46 -64 50 -84 64 -104 86 -125
13 -12 49 -53 79 -91 55 -69 196 -224 254 -279 17 -16 30 -33 28 -38 -1 -5 3
-5 9 -2 6 4 25 -6 42 -22 18 -16 56 -39 85 -51 50 -20 153 -87 160 -104 2 -5
8 -8 14 -8 5 0 16 -7 24 -14 12 -13 20 -13 59 2 41 15 47 15 81 -1 20 -10 34
-20 31 -23 -11 -12 55 -65 121 -97 37 -19 76 -39 87 -45 11 -7 40 -21 65 -32
25 -11 74 -36 110 -55 63 -34 100 -44 100 -26 0 5 14 23 32 40 30 29 30 32 15
49 -9 10 -17 27 -17 36 0 29 32 74 56 80 12 3 29 9 38 12 9 3 16 2 16 -4 0 -5
-15 -13 -33 -16 -43 -8 -75 -64 -55 -96 7 -11 16 -20 19 -20 15 0 70 74 76
101 3 19 12 29 23 29 10 0 34 20 55 45 32 40 36 50 30 83 -4 25 -1 47 9 67 9
17 16 39 16 50 0 76 218 255 328 270 42 5 79 22 93 42 8 11 29 25 47 32 21 9
29 17 22 21 -7 5 -1 10 16 14 15 4 40 16 55 27 15 10 32 19 37 19 6 0 12 4 14
8 2 4 37 24 78 44 94 46 133 61 125 48 -3 -6 -12 -10 -20 -10 -7 0 -15 -4 -17
-8 -1 -4 -41 -26 -88 -49 -117 -56 -144 -79 -55 -47 39 14 97 34 130 43 51 15
60 21 63 43 2 15 11 28 22 31 10 3 31 22 47 44 26 37 37 43 198 97 93 32 190
59 215 61 25 1 74 8 110 15 54 10 78 10 135 -2 50 -10 88 -11 133 -5 57 8 73
6 160 -22 53 -17 123 -38 154 -47 42 -11 63 -23 82 -48 20 -27 34 -34 70 -38
43 -5 267 -105 280 -126 3 -6 29 -16 57 -23 37 -10 58 -22 75 -45 28 -37 137
-79 250 -98 33 -5 99 -45 172 -105 43 -35 82 -94 82 -128 0 -10 7 -27 15 -37
10 -14 13 -34 8 -76 l-6 -57 42 -22 c23 -12 47 -19 52 -16 5 4 9 1 9 -6 0 -6
23 -37 50 -69 30 -34 45 -60 38 -62 -14 -5 27 -64 50 -73 21 -8 155 59 217
108 20 16 121 79 175 109 40 22 60 41 73 68 23 49 64 67 114 52 53 -16 78 1
269 188 61 60 109 112 105 116 -3 3 1 5 9 4 30 -5 40 0 40 19 0 11 5 23 11 26
6 4 8 14 5 22 -3 8 -2 12 3 8 5 -3 24 13 41 35 l32 40 -26 0 c-16 0 -26 -6
-26 -15 0 -8 -4 -15 -10 -15 -5 0 -7 7 -4 15 4 8 1 15 -5 15 -6 0 -11 -7 -11
-15 0 -11 -11 -15 -42 -15 -42 0 -44 -14 -3 -22 13 -2 21 -12 23 -29 3 -22 -2
-27 -29 -33 -17 -3 -42 -6 -55 -6 -12 0 -29 -8 -36 -18 -10 -13 -31 -18 -101
-21 -81 -3 -90 -1 -112 20 -56 55 -63 59 -106 60 -39 1 -41 2 -14 8 29 7 29 7
8 15 -27 9 -32 53 -8 62 8 4 15 12 15 20 0 8 8 14 18 14 25 0 41 13 45 37 4
31 26 53 53 53 15 0 24 6 24 15 0 8 7 15 16 15 8 0 13 4 9 10 -3 5 0 19 7 31
11 18 10 23 -9 36 -18 12 -23 25 -23 57 0 23 5 47 12 54 9 9 8 18 -3 38 -13
25 -12 28 9 42 15 10 22 24 22 45 0 17 5 46 12 64 9 26 18 33 38 33 14 0 31 5
38 12 9 9 23 9 59 0 31 -8 64 -10 93 -4 70 12 79 8 70 -35 -5 -20 -14 -39 -21
-43 -21 -14 2 -30 43 -30 61 0 149 -56 118 -75 -14 -9 -12 -25 3 -25 6 0 18
-4 25 -9 23 -14 -28 -100 -60 -102 -7 -1 -2 -5 12 -9 l25 -8 -25 -1 c-14 -1
-40 -10 -57 -21 -26 -15 -33 -27 -33 -50 0 -28 2 -30 38 -30 40 0 57 -8 63
-28 3 -8 12 -4 29 12 38 37 85 98 85 111 0 6 10 24 21 40 11 17 28 47 38 69
10 21 27 41 37 43 10 3 19 13 19 23 0 10 7 23 15 30 8 7 15 18 15 24 0 7 9 30
20 51 26 49 60 148 60 172 0 10 9 32 20 48 11 17 29 60 40 96 11 37 26 71 33
77 15 13 85 18 192 14 57 -2 96 -10 136 -28z m-1413 -109 c6 -3 12 -15 12 -29
0 -13 7 -26 15 -30 21 -8 19 -30 -5 -51 -19 -18 -19 -19 -1 -49 16 -27 17 -75
1 -78 -16 -4 -51 12 -45 21 4 7 -4 11 -19 11 -22 0 -26 5 -26 30 0 16 -7 33
-16 38 -20 11 -30 132 -11 144 11 7 61 3 95 -7z m1600 -6270 c-14 -31 -8 -45
75 -178 l61 -98 101 -54 c56 -30 109 -55 118 -55 8 0 27 14 41 31 37 44 32 14
-9 -54 -19 -32 -35 -60 -35 -62 0 -3 -109 -185 -117 -194 -1 -2 -5 -2 -8 1 -3
2 2 20 12 38 l16 34 -36 31 c-19 17 -64 45 -98 63 -62 32 -62 32 -218 32 -123
0 -161 -3 -177 -15 -24 -18 -36 -19 -32 -2 6 22 163 267 172 267 4 0 6 -6 3
-12 -2 -7 -7 -23 -11 -35 l-7 -23 125 0 c97 0 126 3 126 13 0 19 -102 169
-123 181 -14 9 -21 7 -32 -8 -8 -11 -17 -17 -20 -14 -9 9 58 138 72 138 10 0
10 -6 1 -25z m-7272 -530 c79 -110 150 -209 159 -220 8 -10 15 -26 15 -35 0
-19 -176 -164 -184 -151 -3 4 11 46 31 92 37 85 51 178 27 186 -21 7 -394
-282 -394 -305 0 -10 7 -28 16 -40 16 -23 12 -44 -5 -26 -5 5 -57 76 -115 158
-103 146 -127 191 -67 127 16 -17 34 -31 39 -31 15 0 411 270 411 280 1 3 -4
12 -9 20 -8 12 -35 15 -145 14 -75 0 -134 3 -133 8 5 15 182 127 197 125 7 -1
78 -92 157 -202z m7012 -96 c106 -75 98 -67 86 -79 -5 -5 -25 -6 -49 0 -22 4
-74 11 -115 15 -68 6 -78 5 -100 -14 l-25 -21 30 -22 c16 -13 99 -78 184 -146
85 -67 166 -125 179 -129 19 -4 30 0 44 16 9 13 22 21 28 19 6 -2 -45 -69
-112 -150 -67 -81 -124 -145 -126 -143 -3 2 3 16 12 29 9 14 16 34 16 44 0 13
-64 75 -182 176 -101 86 -186 156 -190 156 -4 0 -12 -9 -18 -20 -12 -22 8
-129 34 -185 21 -44 31 -88 19 -84 -18 7 -173 154 -173 164 0 6 31 47 68 92
37 45 114 141 172 212 58 72 111 130 118 131 7 0 52 -28 100 -61z m-6733 -277
c31 -23 215 -221 215 -231 0 -8 -7 -7 -22 3 -12 9 -31 16 -41 16 -10 0 -90
-70 -183 -162 -166 -164 -184 -189 -149 -218 8 -7 15 -18 15 -24 0 -6 -59 49
-130 123 -122 127 -151 164 -98 127 12 -9 30 -16 38 -16 20 0 173 130 337 287
34 33 36 50 5 86 -15 17 -6 24 13 9z m6212 -284 c62 -61 82 -98 46 -83 -99 42
-186 47 -239 14 -80 -49 -72 -129 13 -129 16 0 75 16 132 35 146 50 216 45
283 -18 98 -92 26 -282 -125 -330 -30 -9 -62 -17 -73 -17 -11 0 -30 -7 -42
-16 -21 -14 -21 -17 -8 -49 28 -66 -4 -45 -83 56 -94 119 -105 143 -43 101
116 -79 261 -83 335 -8 50 50 27 126 -37 126 -17 0 -66 -13 -108 -29 -97 -38
-186 -56 -223 -47 -41 10 -102 78 -115 127 -26 96 44 214 142 239 69 17 91 29
84 45 -3 8 -9 22 -12 30 -12 29 11 14 73 -47z m-5712 -193 c61 -29 128 -94
157 -152 31 -61 42 -69 73 -49 49 32 48 10 -3 -58 -20 -28 -49 -68 -62 -88
-29 -45 -45 -49 -36 -10 3 15 9 57 12 93 8 80 -6 129 -47 164 -59 49 -129 27
-230 -76 -69 -69 -143 -182 -153 -234 -4 -18 0 -41 8 -57 21 -40 -2 -38 -49 4
-87 76 -115 210 -65 313 78 161 241 223 395 150z m5211 -357 c256 -185 300
-208 332 -176 6 6 15 9 18 5 4 -3 0 -12 -7 -20 -29 -28 -273 -187 -288 -187
-11 0 -9 4 7 16 12 8 22 24 22 34 0 19 -86 100 -107 100 -7 0 -33 -15 -58 -32
-45 -33 -45 -33 -40 -81 11 -95 30 -113 85 -82 29 17 40 18 40 6 0 -10 -174
-111 -191 -111 -6 0 3 13 20 29 17 16 31 33 31 38 -1 39 -27 175 -65 333 -25
104 -45 194 -45 199 0 9 58 50 71 51 3 0 82 -55 175 -122z m-5181 -28 c154
-110 140 -99 133 -106 -4 -3 -16 -1 -28 6 -34 18 -52 5 -115 -85 -33 -47 -64
-84 -69 -82 -6 2 -14 17 -18 33 -11 42 -34 61 -93 75 -64 16 -75 26 -43 38 13
5 32 20 41 34 8 13 22 30 29 38 49 51 60 101 28 121 -11 7 -20 19 -20 27 0 9
4 10 13 4 6 -5 71 -52 142 -103z m541 1 c255 -136 311 -166 333 -181 l22 -15
-45 -97 c-25 -54 -50 -98 -56 -98 -5 0 -10 18 -10 41 0 47 -25 150 -45 190
-12 23 -102 87 -109 77 -5 -7 -45 -77 -80 -141 l-37 -67 28 -11 c39 -15 70 -4
109 39 19 21 34 31 34 23 0 -16 -106 -229 -122 -246 -6 -6 -7 14 -2 56 6 60 5
67 -19 95 -33 38 -30 40 -118 -126 -18 -36 -38 -68 -43 -72 -12 -8 -249 116
-255 133 -2 8 2 8 17 0 41 -22 65 -13 98 37 58 88 193 317 203 344 9 25 7 31
-22 58 -18 16 -27 30 -21 30 6 0 69 -31 140 -69z m4104 -81 c0 -5 -7 -13 -17
-18 -24 -14 -19 -60 15 -133 16 -35 51 -113 77 -174 26 -60 56 -130 67 -154
19 -43 19 -45 2 -58 -10 -7 -28 -13 -40 -13 -12 0 -134 56 -271 124 -136 68
-249 120 -251 115 -4 -9 51 -154 110 -298 l31 -73 48 4 c48 5 66 -4 32 -15
-10 -3 -47 -17 -83 -30 -93 -35 -110 -39 -110 -30 0 5 16 17 36 27 35 16 36
18 31 60 -8 53 -141 396 -159 407 -7 5 -30 9 -50 9 -21 0 -38 3 -38 8 0 4 55
28 123 53 l122 47 115 -61 c63 -33 146 -77 184 -99 38 -21 70 -37 73 -35 2 2
-20 59 -49 127 -61 142 -76 158 -133 135 -20 -9 -39 -14 -42 -11 -5 4 47 36
122 75 45 23 55 25 55 11z m-3382 -250 c107 -39 207 -77 223 -85 43 -23 69
-67 69 -118 0 -84 -67 -143 -150 -132 -33 5 -34 5 -15 -10 66 -50 95 -107 95
-188 0 -23 17 -47 32 -47 4 0 16 16 26 36 24 48 39 27 16 -21 -32 -68 -127
-94 -209 -56 -74 34 -80 47 -80 185 0 126 -5 146 -33 146 -13 0 -26 -24 -50
-97 -18 -54 -32 -105 -32 -113 0 -8 14 -28 32 -43 31 -26 31 -28 8 -22 -23 6
-139 46 -282 97 -58 21 -73 44 -19 28 19 -5 35 -4 45 3 14 11 84 183 154 375
l26 74 -34 29 c-19 16 -31 29 -26 29 6 0 97 -32 204 -70z m2742 -17 c0 -3 -13
-18 -29 -32 -25 -22 -34 -44 -56 -140 -14 -62 -27 -125 -27 -140 0 -36 61
-234 75 -243 7 -4 28 -5 47 -2 23 4 32 3 25 -3 -5 -6 -71 -26 -145 -46 -192
-50 -220 -56 -220 -47 0 5 13 11 29 15 51 11 54 23 30 127 l-22 95 -117 121
c-87 91 -126 124 -149 128 -18 4 -29 10 -24 15 4 4 71 22 147 39 77 18 146 34
153 37 7 3 13 0 13 -7 0 -6 -9 -14 -20 -17 -11 -3 -20 -13 -20 -21 0 -18 148
-172 166 -172 13 0 57 201 48 224 -4 10 -18 16 -38 17 -25 0 -17 5 44 29 82
31 90 33 90 23z m-3230 -142 c0 -11 -84 -198 -93 -207 -6 -6 -152 68 -170 85
-5 5 10 11 33 15 48 8 118 42 175 85 42 32 55 37 55 22z m1285 -39 c17 -8 42
-23 57 -33 34 -24 55 -24 63 1 3 11 11 20 17 20 9 0 6 -62 -8 -162 -7 -45 -21
-50 -29 -10 -28 134 -169 238 -236 171 -15 -15 -19 -28 -14 -47 8 -36 34 -58
130 -115 94 -55 103 -63 133 -101 68 -89 42 -205 -58 -256 -91 -46 -175 -34
-277 41 -37 27 -71 49 -76 49 -4 0 -18 -17 -30 -37 -21 -36 -22 -37 -24 -13
-4 35 40 241 51 243 6 1 15 -28 21 -64 20 -124 103 -217 203 -227 42 -4 52 -1
71 19 11 12 21 35 21 50 0 32 -23 52 -140 120 -41 24 -94 63 -119 86 l-43 42
4 64 c3 51 10 72 31 101 60 78 165 103 252 58z m1125 -54 c108 -49 170 -148
170 -270 0 -76 -27 -136 -80 -178 -72 -57 -164 -76 -424 -86 -124 -5 -167 -4
-162 5 4 6 20 11 36 11 19 0 33 7 39 19 7 12 8 97 4 242 -6 197 -8 224 -25
241 -10 10 -28 18 -40 18 -12 0 -18 3 -14 8 9 9 205 19 341 17 85 -1 109 -6
155 -27z m-4904 -323 c-21 -43 -20 -58 6 -132 18 -48 27 -62 39 -58 12 4 18
-3 23 -32 11 -71 8 -89 -19 -101 -57 -26 -92 -5 -80 48 4 16 1 46 -5 66 -10
30 -16 35 -36 31 -12 -2 -25 1 -27 7 -8 21 33 127 70 181 40 58 58 52 29 -10z
m3984 -577 c0 -23 44 -51 68 -44 31 10 35 -20 7 -51 -94 -105 -115 -135 -116
-166 -1 -18 0 -36 1 -42 13 -49 19 -120 12 -123 -6 -2 -7 -12 -4 -24 9 -36
-20 -15 -51 36 -35 61 -46 126 -23 148 9 9 16 23 16 30 0 8 4 18 9 23 14 15
25 129 12 121 -18 -12 -17 69 1 92 13 15 38 -2 38 -26 0 -12 3 -13 11 -5 8 8
8 17 -1 32 -13 25 -3 52 11 30 5 -8 9 -22 9 -31z m5650 -98 c22 -11 48 -20 58
-20 11 0 31 -9 45 -20 14 -11 36 -20 49 -20 35 0 65 -26 70 -60 8 -55 -5 -62
-107 -51 -143 16 -176 27 -221 75 l-31 33 31 35 c26 29 43 41 64 47 1 1 20 -8
42 -19z m-6760 -112 c-122 -97 -161 -141 -141 -161 16 -16 14 -57 -4 -57 -21
0 -19 -23 9 -83 36 -79 41 -137 16 -180 -24 -40 -29 -42 -134 -46 -44 -2 -90
-7 -103 -12 -26 -10 -80 -2 -90 14 -4 6 -1 7 7 2 10 -6 12 -4 7 8 -4 11 1 20
13 27 11 6 20 17 20 25 0 7 5 17 11 21 7 4 9 0 5 -14 -9 -28 10 -37 39 -18 15
10 46 16 81 16 46 0 64 5 92 26 33 26 34 29 30 79 -3 30 -13 65 -24 80 -10 16
-23 35 -29 44 -5 9 -14 19 -19 23 -5 3 -2 14 8 23 9 9 23 32 30 49 14 33 62
77 146 133 49 32 70 34 30 1z m6514 -15 c28 -27 49 -102 40 -141 -8 -34 -23
-54 -36 -46 -5 3 -15 0 -23 -6 -12 -10 -15 -9 -15 3 0 15 -12 22 -63 37 -25 8
-29 6 -38 -18 l-10 -27 -25 45 c-13 25 -31 60 -39 78 -8 17 -19 32 -23 32 -5
0 -16 6 -27 13 -17 14 -17 15 1 33 16 16 34 19 127 19 98 0 110 -2 131 -22z
m-8794 -108 c-15 -68 -59 -95 -153 -95 -47 0 -66 -4 -70 -14 -3 -8 -2 -16 3
-18 5 -2 5 -21 0 -43 -5 -22 -13 -60 -19 -85 -5 -25 -7 -58 -5 -75 5 -26 4
-28 -7 -11 -8 13 -10 41 -5 87 6 64 5 68 -19 86 -18 13 -22 22 -15 33 8 12 13
13 30 2 17 -11 20 -10 20 7 0 10 -8 25 -17 32 -24 20 -73 90 -73 105 0 7 18
15 41 19 34 6 47 3 73 -16 61 -46 206 -34 206 17 0 8 4 13 9 10 5 -3 5 -21 1
-41z"/>
<path d="M9559 10403 c-1 -5 -1 -16 0 -25 2 -12 -5 -18 -18 -18 -23 0 -91 -56
-91 -75 0 -16 -27 -28 -35 -15 -3 5 1 12 8 17 14 8 31 83 19 83 -33 -1 -51
-16 -62 -53 -10 -35 -10 -42 4 -53 9 -6 16 -15 16 -19 0 -4 -7 -2 -15 5 -18
15 -20 -1 -3 -18 9 -9 3 -20 -28 -46 -21 -20 -33 -35 -26 -36 21 0 13 -33 -18
-74 -17 -22 -30 -45 -30 -51 0 -6 -9 -30 -20 -53 -23 -47 -25 -73 -8 -90 8 -8
9 -18 1 -34 -6 -13 -19 -50 -29 -82 -10 -33 -31 -78 -46 -100 -15 -23 -28 -53
-28 -67 0 -49 -92 -211 -160 -284 -11 -12 -20 -25 -20 -29 0 -10 -42 -56 -99
-110 -24 -22 -66 -62 -93 -88 -28 -27 -56 -48 -63 -48 -7 0 -23 -16 -36 -35
-13 -19 -27 -35 -31 -35 -3 0 -26 -19 -50 -43 -50 -49 -97 -87 -109 -87 -14 0
3 33 30 58 15 13 54 50 88 82 35 33 69 60 78 60 8 0 12 6 9 15 -6 14 40 65 57
65 5 0 9 6 9 13 0 6 14 25 30 41 17 16 28 31 25 34 -2 3 7 20 21 39 14 18 21
33 17 33 -9 0 -90 -77 -139 -131 -40 -45 -109 -99 -126 -99 -7 0 -24 -14 -38
-32 -62 -78 -97 -111 -113 -105 -26 10 -21 46 7 57 14 5 30 19 37 32 13 26 77
88 90 88 5 0 9 6 9 13 1 6 19 28 41 47 99 86 320 323 353 379 6 10 20 31 30
47 104 156 170 276 164 296 -2 5 -25 -29 -52 -77 -26 -47 -68 -116 -93 -152
-41 -62 -55 -82 -100 -142 -52 -70 -193 -213 -309 -316 -73 -64 -127 -113
-184 -164 -34 -31 -60 -40 -60 -21 0 6 3 10 8 10 4 0 26 18 50 40 47 44 47 55
0 15 -22 -18 -34 -23 -42 -15 -9 7 -19 3 -35 -14 l-23 -24 26 -38 c39 -58 32
-60 -26 -10 -57 50 -72 54 -100 29 -22 -19 -25 -1 -3 21 19 18 19 26 1 26 -19
0 -56 -52 -56 -80 0 -25 -26 -55 -35 -40 -11 17 -27 11 -21 -8 5 -13 -1 -22
-20 -30 -14 -7 -30 -10 -34 -7 -16 10 -68 -23 -95 -59 -15 -20 -39 -37 -56
-41 -21 -5 -29 -11 -25 -22 4 -10 0 -14 -17 -12 -12 1 -35 -3 -50 -9 -16 -7
-33 -12 -38 -12 -14 0 -11 -11 11 -47 22 -37 17 -44 -10 -13 -10 12 -21 17
-24 11 -4 -5 10 -27 29 -48 19 -21 35 -41 35 -45 0 -19 -21 -5 -47 29 -15 20
-40 49 -55 64 -16 14 -28 30 -28 34 0 9 -48 52 -75 67 -11 6 11 -21 49 -61 64
-67 68 -73 62 -106 -4 -19 -3 -35 1 -35 5 0 16 -12 25 -27 24 -41 115 -139
122 -132 4 3 0 19 -9 35 -17 34 0 49 22 18 17 -23 17 -39 -1 -56 -11 -12 -9
-19 17 -48 l29 -35 -7 30 c-3 16 -10 32 -15 35 -5 3 -5 12 0 20 7 10 10 11 10
3 0 -7 20 -44 45 -83 25 -39 45 -72 45 -75 0 -3 31 -55 70 -116 38 -61 75
-124 82 -140 7 -16 19 -29 27 -29 7 0 11 -6 8 -14 -3 -8 5 -24 19 -37 13 -12
24 -31 24 -41 0 -11 5 -16 10 -13 6 3 10 -3 10 -13 0 -11 9 -22 20 -25 34 -9
24 -29 -10 -22 -31 7 -39 -2 -18 -23 9 -9 7 -13 -5 -18 -9 -3 -17 -10 -17 -16
0 -5 5 -6 10 -3 13 8 60 -21 60 -37 0 -6 -8 -17 -17 -25 -17 -13 -16 -14 7 -9
21 4 28 0 39 -25 7 -16 27 -43 44 -60 28 -29 32 -30 38 -13 7 18 7 18 15 -1 4
-11 15 -31 23 -45 9 -13 32 -67 51 -120 32 -86 35 -101 28 -159 -6 -53 -13
-70 -38 -96 -16 -17 -30 -37 -30 -43 0 -26 -99 -118 -193 -179 -114 -74 -271
-152 -372 -183 -38 -12 -95 -30 -125 -40 -192 -60 -605 -142 -560 -111 12 9
11 11 -6 11 -12 0 -24 -7 -28 -15 -8 -21 -45 -19 -53 3 -4 9 -17 28 -30 42
-25 27 -30 45 -10 37 6 -2 17 1 24 8 9 10 8 14 -8 18 -26 7 -26 47 1 47 12 0
20 -7 20 -17 1 -17 1 -17 11 0 15 25 -6 49 -36 41 -20 -5 -23 -1 -28 38 -3 24
-2 44 3 46 24 9 -36 95 -62 90 -8 -2 -13 8 -13 27 0 22 4 30 18 29 9 -1 17 2
17 7 0 5 -7 9 -15 9 -17 0 -20 16 -6 25 6 3 4 26 -5 56 -11 35 -12 55 -5 62 7
7 7 16 0 29 -5 10 -8 22 -5 27 3 4 -1 46 -8 92 -8 46 -12 87 -9 92 2 4 1 21
-2 38 l-7 31 -21 -21 c-11 -11 -18 -24 -13 -28 4 -4 11 -1 16 7 8 12 10 12 10
-4 0 -10 -7 -24 -17 -31 -17 -13 -9 -40 9 -29 8 5 9 1 5 -10 -4 -10 -7 -27 -7
-38 0 -28 -12 -15 -14 14 0 13 -7 23 -15 23 -10 0 -15 16 -18 54 -2 40 -8 58
-23 68 -11 8 -20 19 -20 25 0 6 -8 20 -17 31 -10 10 -18 32 -19 49 -1 17 -6
33 -12 37 -5 3 -13 20 -16 38 -4 17 -14 37 -21 43 -9 8 -12 22 -8 42 5 24 3
29 -7 23 -9 -5 -11 -4 -6 3 4 6 0 24 -8 39 -8 16 -15 24 -16 18 -1 -17 -20 19
-20 38 0 15 4 14 24 -7 23 -26 46 -34 46 -17 0 5 -7 16 -15 25 -8 8 -15 21
-15 30 0 8 -8 19 -17 25 -14 7 -15 12 -4 25 7 8 10 20 6 27 -6 8 -10 7 -16 -2
-7 -11 -9 -11 -9 2 0 8 5 20 12 27 8 8 9 25 0 64 -6 29 -10 79 -10 111 1 33
-4 63 -11 70 -10 9 -11 8 -6 -5 9 -22 -1 -23 -22 -2 -11 10 -13 18 -6 22 6 4
14 22 18 41 5 23 4 31 -4 27 -6 -4 -11 -14 -11 -22 0 -16 -20 -20 -21 -4 -4
48 0 81 9 93 8 10 9 23 4 38 -9 23 -10 23 -16 -9 -9 -38 -21 -35 -29 8 -9 40
0 59 24 53 14 -4 19 0 19 16 0 12 6 21 15 21 17 0 20 25 5 35 -6 3 -15 -6 -21
-22 -6 -15 -13 -22 -16 -16 -2 7 6 31 19 54 21 38 22 42 5 54 -19 14 -22 36
-6 52 8 8 8 17 0 31 -14 26 2 39 57 48 23 4 42 10 42 13 0 9 -173 -9 -184 -19
-4 -5 0 -23 9 -42 32 -60 35 -68 35 -87 0 -31 -28 -34 -33 -3 -3 15 -2 -9 0
-53 2 -44 13 -114 23 -155 10 -41 26 -156 34 -255 9 -99 21 -220 26 -270 5
-49 15 -183 21 -297 7 -115 16 -208 21 -208 4 0 8 5 8 10 0 6 10 10 23 10 15
0 18 -3 9 -9 -8 -5 -11 -17 -7 -34 4 -14 2 -34 -3 -44 -10 -17 -11 -17 -17 0
-12 31 -25 18 -20 -20 2 -21 7 -85 10 -143 9 -178 16 -293 20 -345 2 -27 7
-88 11 -135 4 -47 13 -97 20 -111 12 -24 11 -28 -10 -48 -31 -30 -52 -27 -59
9 -6 29 -22 185 -32 305 -2 33 -6 76 -8 95 -2 19 0 53 5 75 6 25 5 69 -2 120
-6 44 -15 145 -21 225 -19 287 -22 311 -42 332 -15 16 -39 68 -30 68 3 0 21
-17 40 -37 23 -25 32 -31 28 -18 -3 11 -13 49 -21 85 -8 36 -17 72 -21 80 -3
8 -7 49 -8 90 -1 41 -7 116 -13 165 -14 105 -19 153 -32 295 -5 57 -14 116
-20 130 -6 14 -9 47 -6 72 4 38 2 46 -10 41 -11 -4 -14 5 -14 43 1 116 1 114
-18 114 -26 0 -59 37 -45 51 5 5 49 12 96 14 48 2 95 9 106 15 11 5 24 9 28 8
4 -1 25 1 46 6 33 6 37 10 31 29 -4 12 -20 34 -37 48 -17 15 -27 31 -23 38 4
6 0 11 -10 11 -12 0 -15 6 -11 21 5 19 2 21 -39 16 -24 -2 -47 -6 -50 -9 -3
-3 9 -21 25 -39 40 -43 45 -102 9 -97 -15 2 -24 11 -26 26 -2 13 -14 28 -27
34 -34 15 -39 37 -12 47 21 8 21 9 3 17 -24 9 -82 10 -243 2 -106 -6 -132 -4
-137 7 -3 10 9 15 45 20 l50 7 -3 60 c-3 59 -3 59 -29 54 -22 -4 -26 -2 -22
13 3 13 -5 23 -31 35 -39 19 -46 33 -42 94 2 23 1 42 -3 42 -8 0 -61 -85 -61
-99 0 -6 -6 -11 -13 -11 -20 0 -37 -44 -37 -94 0 -39 3 -45 30 -56 17 -7 44
-25 61 -41 26 -24 29 -33 24 -66 -6 -39 -6 -155 -1 -160 2 -2 32 -3 67 -3 137
1 172 0 177 -5 14 -13 -16 -17 -121 -16 -109 1 -115 0 -141 -24 -15 -14 -45
-34 -66 -45 -32 -16 -39 -17 -44 -5 -3 9 5 19 22 27 47 22 66 78 63 187 -2 83
-5 99 -24 119 -37 40 -51 43 -129 31 -74 -11 -115 -29 -66 -29 36 0 43 -15 18
-40 -25 -25 -16 -49 9 -26 10 9 20 13 24 10 9 -10 -15 -54 -30 -54 -8 0 -13
-12 -14 -32 -2 -92 -4 -103 -19 -103 -34 0 -54 100 -37 188 8 41 -14 30 -37
-18 -12 -26 -18 -60 -17 -102 1 -65 12 -94 46 -125 18 -16 18 -17 2 -18 -10 0
-20 7 -23 15 -3 8 -14 17 -25 20 -18 6 -19 16 -18 116 0 61 -1 112 -3 114 -1
2 -32 5 -67 7 -36 2 -66 8 -68 14 -2 6 11 8 32 6 41 -5 45 9 21 76 -15 43 -7
63 18 43 7 -6 23 -13 37 -15 13 -3 26 -5 29 -6 3 -1 -5 -5 -17 -10 -17 -7 -21
-15 -18 -46 2 -20 8 -41 14 -47 21 -21 151 63 151 97 0 26 -48 111 -82 143
-18 17 -41 40 -51 51 -20 22 -57 35 -57 21 0 -5 4 -9 9 -9 5 0 12 -7 15 -16
13 -34 -24 8 -50 57 -20 37 -36 51 -63 61 -37 12 -109 14 -165 4 -38 -7 -53 2
-57 34 -3 21 -10 26 -42 28 -21 2 -45 -2 -53 -9 -11 -9 -18 -8 -30 2 -13 11
-17 10 -25 -3 -5 -9 -35 -24 -67 -33 -78 -22 -112 -36 -112 -46 0 -5 -6 -9
-13 -9 -23 0 -92 -41 -114 -68 -13 -15 -23 -23 -23 -19 0 15 -41 -15 -49 -36
-7 -16 -4 -28 12 -44 27 -30 40 -29 101 6 28 15 53 28 56 27 3 0 16 7 29 16
17 12 24 27 25 54 1 52 -20 55 -34 3 -11 -39 -13 -41 -28 -25 -16 16 -14 20
27 57 41 37 48 40 95 37 50 -3 51 -3 54 -38 2 -32 1 -34 -12 -17 -11 15 -19
16 -33 8 -10 -6 -13 -11 -8 -11 10 0 -3 -15 -94 -108 -29 -30 -50 -56 -47 -59
10 -10 -57 -53 -83 -53 -23 -1 -24 -2 -8 -11 11 -6 30 -9 43 -6 14 2 27 0 30
-4 3 -5 10 -9 15 -9 6 0 8 4 4 9 -5 10 24 31 43 31 5 0 15 -11 22 -25 15 -28
36 -34 25 -7 -4 9 -9 23 -13 31 -4 11 2 13 31 8 20 -3 36 -2 34 3 -1 4 1 8 6
9 4 1 7 -1 7 -4 0 -3 0 -12 0 -21 0 -8 -4 -12 -10 -9 -6 3 -10 -1 -10 -10 0
-13 4 -14 21 -4 12 6 24 20 26 30 6 20 28 26 38 9 11 -18 23 -10 30 19 7 31
49 84 59 74 3 -4 6 -15 6 -26 0 -20 44 -69 88 -97 20 -13 22 -19 13 -43 -9
-24 -8 -27 9 -27 12 0 17 5 14 13 -2 7 4 24 16 37 17 20 24 22 52 13 l33 -10
-30 -8 c-65 -17 -77 -55 -17 -56 l37 -1 -35 -12 c-29 -11 -36 -11 -38 0 -2 9
-10 11 -26 5 -12 -5 -39 -9 -60 -9 -25 0 -42 -6 -51 -18 -9 -12 -18 -15 -22
-9 -5 6 -21 9 -38 9 -46 -2 -48 -3 -36 -18 10 -11 8 -16 -7 -20 -18 -6 -42
-63 -42 -100 0 -10 -8 -16 -21 -16 -21 0 -22 3 -15 61 3 34 10 67 16 74 13 16
2 25 -32 25 -18 0 -28 -5 -28 -15 0 -8 -7 -15 -17 -15 -9 0 -13 -3 -10 -6 3
-4 0 -16 -8 -28 -8 -11 -15 -40 -15 -63 l0 -43 44 0 c25 0 48 -5 52 -11 4 -6
20 -8 39 -5 19 4 36 3 39 -2 3 -5 17 -7 30 -5 21 4 24 2 19 -16 -8 -31 -80
-29 -347 10 -79 11 -166 37 -166 49 0 5 -19 13 -42 19 -24 5 -71 17 -105 27
-61 16 -113 13 -113 -6 0 -6 6 -10 13 -10 7 0 21 -9 30 -21 18 -20 17 -21 -2
-26 -32 -8 -25 -26 9 -21 30 5 41 -5 18 -16 -10 -5 -10 -7 0 -12 10 -5 10 -10
-4 -25 -14 -15 -14 -19 -3 -23 8 -2 32 -10 54 -17 22 -6 43 -16 47 -22 3 -6
21 -11 40 -11 18 -1 44 -9 58 -19 32 -22 40 -3 9 22 -17 14 -30 16 -51 10 -25
-7 -27 -6 -18 11 14 27 68 34 157 21 68 -10 107 -21 75 -21 -7 0 -12 -5 -12
-11 0 -7 10 -9 25 -5 14 4 25 2 25 -3 0 -5 10 -12 22 -16 13 -4 25 -8 28 -9 3
-1 16 -6 30 -11 l25 -9 -25 -7 c-45 -13 -68 -9 -98 16 l-29 25 -19 -25 c-10
-14 -22 -25 -27 -25 -11 0 -87 -52 -87 -60 0 -3 22 -6 49 -6 27 1 52 -2 56 -6
11 -11 -25 -56 -54 -66 -15 -5 -41 -24 -58 -41 -17 -17 -36 -31 -42 -31 -6 0
-11 -6 -11 -14 0 -11 8 -12 37 -5 21 4 39 6 42 4 2 -3 9 -1 16 5 17 14 185 24
185 11 0 -6 -7 -11 -15 -11 -9 0 -15 -9 -15 -25 0 -14 4 -25 8 -25 5 0 14 -10
20 -22 6 -13 11 -17 11 -10 1 6 6 12 12 12 6 0 9 -7 6 -15 -4 -8 0 -27 8 -42
18 -33 19 -43 5 -43 -5 0 -10 10 -11 23 l0 22 -16 -22 c-8 -13 -23 -23 -32
-22 -10 0 -11 2 -3 6 15 6 15 25 0 57 -17 39 -37 16 -31 -34 4 -27 0 -47 -11
-64 -9 -14 -16 -37 -16 -51 0 -27 -16 -35 -22 -10 -2 13 -5 12 -15 -4 -11 -17
-10 -19 3 -14 11 4 10 -3 -6 -30 -12 -19 -17 -37 -13 -40 14 -9 39 17 47 46 3
15 11 27 16 27 6 0 10 6 10 14 0 7 7 19 15 26 19 15 19 3 1 -31 -7 -14 -16
-37 -20 -52 -3 -15 -13 -27 -20 -27 -11 0 -12 -6 -1 -37 23 -69 28 -113 12
-113 -17 0 -30 -27 -17 -35 4 -3 10 1 13 7 2 7 7 10 11 7 12 -12 -14 -89 -34
-102 -11 -6 -20 -17 -20 -24 0 -7 -4 -13 -8 -13 -4 0 -9 -10 -9 -22 -1 -13 -9
-28 -18 -34 -8 -6 -15 -19 -15 -28 0 -9 -5 -16 -10 -16 -6 0 -5 -11 4 -28 10
-20 11 -33 4 -46 -6 -10 -12 -32 -13 -50 -2 -17 -6 -44 -9 -61 -5 -24 -4 -26
3 -10 9 18 10 18 10 -6 1 -14 -5 -31 -12 -38 -10 -11 -8 -12 11 -6 24 7 27 -1
16 -42 -4 -13 -10 -21 -14 -18 -5 3 -11 1 -15 -5 -3 -5 -1 -10 4 -10 6 0 11
-5 11 -11 0 -5 -4 -8 -9 -4 -5 3 -12 1 -15 -4 -4 -5 -2 -12 4 -16 20 -12 10
-26 -11 -15 -25 14 -40 3 -19 -13 19 -15 14 -49 -11 -91 -20 -33 -25 -61 -9
-51 6 3 10 0 11 -7 2 -29 6 -54 13 -75 5 -17 1 -30 -19 -50 l-25 -28 6 35 c4
19 12 38 18 42 8 5 8 10 0 18 -9 9 -14 9 -18 1 -14 -23 -27 -10 -25 23 4 41
-8 58 -22 33 -6 -9 -14 -15 -20 -12 -5 4 -9 2 -9 -4 0 -5 4 -11 9 -13 13 -5
24 -48 12 -48 -5 0 -12 8 -14 18 -2 9 -3 5 -2 -10 1 -16 -1 -28 -5 -28 -11 0
-30 -64 -21 -73 5 -5 -3 -27 -20 -52 -16 -24 -29 -46 -29 -50 0 -3 -7 -13 -15
-21 -8 -9 -14 -23 -14 -32 1 -15 2 -15 6 1 6 25 31 21 35 -5 5 -26 -17 -78
-32 -78 -6 0 -10 -8 -10 -18 0 -11 -9 -27 -20 -37 -27 -25 -25 -37 5 -29 16 4
25 2 25 -5 0 -20 -31 -25 -84 -14 -55 11 -80 7 -73 -11 6 -14 -65 -7 -177 19
-39 9 -91 21 -116 26 -42 10 -71 19 -210 64 -123 41 -245 107 -329 180 -80 69
-82 72 -75 111 6 34 6 35 -14 23 -19 -12 -23 -11 -36 6 -9 11 -13 26 -11 34 3
7 1 19 -5 26 -7 8 -7 15 -2 19 6 3 7 20 3 38 -7 32 6 98 22 114 4 4 7 15 7 24
0 25 39 70 60 70 10 0 28 14 40 31 13 17 28 28 36 25 8 -3 11 0 7 10 -3 8 1
14 9 14 9 0 20 18 27 41 11 37 14 40 28 26 14 -13 17 -13 34 4 10 10 19 21 19
25 0 3 9 25 20 49 15 32 25 43 36 38 17 -6 43 23 44 50 0 10 7 25 15 33 8 8
20 23 27 32 15 20 52 42 70 42 7 0 19 9 26 20 7 11 8 20 3 20 -6 0 -13 -4 -16
-10 -8 -13 -35 -13 -35 1 0 5 4 8 9 4 5 -3 20 13 32 35 13 22 29 40 36 40 8 0
16 7 20 16 3 8 12 13 19 10 11 -4 13 1 8 19 -6 26 10 36 20 13 3 -7 2 0 -1 16
-5 26 -4 29 16 23 11 -3 21 -1 21 4 0 5 5 9 11 9 9 0 74 65 115 115 l16 20 -7
-20 c-19 -54 -23 -75 -16 -79 10 -7 111 90 111 106 0 7 15 23 33 36 17 12 25
22 17 22 -8 0 -24 -7 -34 -15 -10 -8 -23 -12 -27 -9 -5 3 -6 -2 -2 -12 5 -13
2 -15 -18 -9 -16 4 -20 3 -10 -3 10 -7 10 -11 1 -17 -7 -4 -16 -2 -20 5 -4 7
-12 10 -18 6 -6 -4 -8 2 -5 14 3 11 9 20 14 20 5 0 9 7 9 15 0 8 6 12 13 9 15
-5 72 36 73 54 1 6 2 21 3 32 0 13 8 20 22 20 29 0 15 16 -21 23 -21 5 -30 12
-30 27 0 25 9 26 26 3 13 -17 15 -17 30 2 14 19 13 21 -22 31 -28 8 -40 18
-47 38 -6 17 -14 25 -23 22 -16 -6 -19 10 -4 19 17 11 11 33 -11 40 -15 5 -25
1 -35 -14 -17 -24 -42 -27 -68 -8 -24 18 -8 56 50 122 104 116 161 178 192
210 33 34 39 45 23 45 -9 0 -165 -152 -195 -190 -67 -85 -130 -150 -137 -139
-4 7 -16 9 -28 6 -12 -3 -19 -2 -16 3 5 9 -43 60 -56 60 -11 0 -190 89 -274
135 -33 19 -66 37 -74 41 -21 11 -47 38 -54 57 -4 10 -18 22 -32 29 -22 10
-32 9 -61 -7 -19 -10 -34 -24 -34 -32 0 -22 -18 -15 -74 27 -29 22 -56 40 -61
40 -15 0 28 -40 77 -71 49 -31 49 -32 29 -50 -12 -12 -18 -26 -14 -36 5 -14 1
-15 -28 -9 -19 3 -35 11 -37 16 -2 6 -8 10 -14 10 -11 0 -169 111 -205 144
-13 12 -23 24 -23 29 0 12 -53 67 -64 67 -6 -1 0 -10 13 -21 13 -11 22 -21 20
-24 -2 -2 -39 30 -82 71 -67 64 -107 90 -107 68 0 -35 155 -172 275 -244 43
-26 104 -73 168 -132 31 -29 37 -38 23 -38 -17 0 -53 26 -131 94 -16 15 -53
33 -81 41 -29 9 -63 28 -79 45 -16 17 -32 30 -37 30 -7 0 -89 73 -167 150 -31
31 -83 90 -131 150 -19 24 -52 63 -73 86 -20 22 -37 44 -37 48 0 3 -13 25 -30
48 -16 22 -30 45 -30 51 0 8 -60 88 -80 107 -3 3 -13 19 -23 37 l-17 31 32 7
c18 4 37 9 41 12 17 10 -94 133 -120 133 -29 0 -80 31 -91 55 -7 14 -20 25
-29 25 -15 0 -18 -10 -20 -51 -2 -27 1 -67 6 -89 9 -40 -1 -62 -24 -54 -7 3
-16 1 -20 -5 -3 -6 -11 -11 -16 -11 -13 0 -46 78 -70 169 -11 42 -32 91 -46
109 -19 26 -22 36 -13 47 9 10 5 25 -14 64 -14 28 -26 61 -26 73 -1 23 -1 23
-16 3 -12 -17 -16 -18 -24 -5 -7 12 -10 11 -16 -5 -5 -11 -3 -20 4 -23 7 -2
10 -7 7 -12 -3 -5 -7 -29 -9 -53 -3 -33 -1 -47 10 -51 8 -3 14 -18 14 -33 0
-16 4 -43 9 -61 6 -20 6 -30 0 -27 -14 9 -11 -29 3 -44 10 -11 10 -14 1 -18
-14 -5 -16 -54 -3 -93 l8 -25 7 23 c12 36 23 25 35 -35 7 -32 18 -71 25 -88
23 -55 27 -85 11 -85 -8 0 -18 9 -21 21 -4 11 -9 19 -11 16 -7 -7 30 -117 39
-117 5 0 6 14 2 30 -4 19 -3 30 4 30 6 0 12 -4 12 -10 1 -5 2 -14 3 -19 0 -5
4 -13 8 -17 5 -4 8 -16 8 -26 0 -11 20 -61 44 -111 25 -51 48 -104 51 -119 4
-16 11 -28 16 -28 5 0 9 -6 9 -14 0 -7 10 -24 23 -37 12 -14 22 -29 23 -34 3
-39 20 -78 40 -94 13 -10 28 -31 34 -46 9 -24 8 -26 -7 -20 -10 4 -47 13 -83
20 -36 7 -90 19 -120 28 -75 21 -120 28 -120 19 0 -5 14 -21 30 -37 17 -16 30
-36 30 -45 0 -17 111 -55 195 -66 28 -3 64 -10 80 -16 l30 -10 3 -137 c2 -139
14 -188 52 -218 8 -6 12 -14 8 -18 -7 -8 -73 57 -119 116 -15 19 -29 32 -33
28 -5 -4 46 -74 88 -119 68 -74 96 -114 91 -129 -3 -11 3 -25 15 -36 20 -19
27 -45 11 -45 -20 0 -185 193 -175 203 8 8 -21 37 -35 37 -15 0 -14 -6 6 -38
57 -88 277 -332 300 -332 5 0 18 -10 29 -21 10 -12 45 -39 77 -61 35 -24 56
-45 53 -53 -3 -9 2 -11 15 -8 15 4 19 0 19 -21 0 -16 5 -26 15 -26 8 0 15 -7
15 -15 0 -20 -67 16 -154 83 -34 26 -67 51 -75 57 -32 23 -161 155 -224 230
-81 96 -74 87 -116 155 -19 30 -42 64 -52 75 -9 11 -22 38 -28 59 -8 32 -8 43
4 56 21 23 20 27 -30 103 -25 38 -45 73 -45 77 0 5 -6 15 -13 22 -23 23 -87
133 -87 149 0 9 -9 26 -20 39 -11 13 -20 31 -20 41 0 10 -4 20 -9 23 -11 7 7
-76 20 -89 5 -5 9 -20 9 -34 0 -14 9 -44 20 -68 68 -147 148 -328 155 -351 6
-22 32 -64 91 -152 33 -48 124 -155 214 -252 75 -80 156 -148 205 -170 14 -6
25 -18 25 -27 0 -10 -3 -12 -8 -5 -4 6 -27 21 -52 32 -25 12 -56 29 -70 38
-44 30 30 -33 97 -82 34 -25 76 -58 94 -75 17 -16 39 -29 48 -29 14 0 17 -8
15 -39 -1 -21 -4 -43 -8 -49 -3 -6 0 -13 6 -15 10 -4 9 -8 -2 -16 -13 -9 -13
-12 1 -26 19 -20 118 -47 141 -39 13 4 16 1 12 -10 -4 -11 6 -20 35 -33 23
-10 41 -23 41 -29 0 -13 88 -59 96 -51 3 3 -13 18 -35 33 -23 14 -41 33 -41
40 0 8 -4 14 -10 14 -5 0 -10 5 -10 10 0 14 151 -95 171 -123 3 -5 17 -7 30
-5 13 1 24 -2 24 -8 0 -6 15 -24 34 -40 l34 -28 23 29 24 30 0 -28 c0 -15 6
-30 14 -33 15 -6 10 -44 -5 -44 -5 0 -9 -9 -9 -20 0 -12 -7 -35 -16 -52 -14
-28 -18 -30 -28 -16 -21 28 -70 -12 -110 -89 -9 -18 -16 -34 -15 -35 2 -2 -3
-13 -9 -25 -8 -15 -9 -24 -2 -28 6 -4 8 -15 5 -25 -9 -28 41 -116 95 -169 31
-31 121 -88 168 -108 21 -8 48 -23 62 -32 47 -32 360 -132 475 -151 39 -7 79
-16 90 -20 11 -4 38 -13 60 -19 22 -6 71 -20 109 -31 37 -11 79 -20 93 -20 15
0 23 -5 20 -12 -5 -17 -156 -20 -212 -6 -58 15 -95 17 -92 5 1 -6 -6 -13 -16
-15 -15 -3 -18 0 -12 17 7 24 -13 29 -33 9 -9 -9 -15 -8 -25 7 -13 17 -43 13
-32 -4 2 -5 -35 3 -83 16 -149 41 -152 41 -152 32 0 -5 7 -9 15 -9 21 0 85
-32 85 -42 0 -5 8 -8 18 -7 9 1 25 -1 35 -4 9 -4 25 -9 34 -12 12 -4 14 -8 5
-17 -17 -17 -15 -28 3 -22 8 3 13 10 12 14 -2 7 7 12 16 9 1 0 16 -3 32 -5 50
-8 57 -12 50 -34 -6 -19 -4 -20 22 -14 15 4 31 11 34 16 3 5 14 2 23 -7 13
-13 14 -20 5 -31 -9 -11 -7 -15 6 -21 12 -4 24 1 35 15 16 20 19 20 31 6 12
-14 9 -20 -16 -40 -17 -13 -38 -24 -47 -24 -20 0 -25 -16 -7 -22 12 -4 1 -58
-12 -58 -5 0 -9 -6 -9 -14 0 -10 -9 -12 -40 -6 -23 4 -40 3 -40 -2 0 -20 -49
-115 -75 -146 -15 -18 -36 -32 -46 -32 -18 0 -16 7 17 67 21 37 45 94 54 127
14 54 18 61 43 64 15 2 27 10 27 17 0 8 8 18 18 24 13 8 14 12 5 22 -10 10
-14 9 -19 -5 -4 -10 -13 -15 -24 -11 -11 3 -20 0 -24 -10 -3 -8 -10 -15 -17
-15 -14 0 -48 41 -49 58 0 9 -7 11 -20 7 -11 -3 -20 -2 -20 3 0 21 -175 81
-219 74 -40 -6 -90 -78 -132 -190 -34 -89 -35 -98 -13 -110 9 -5 14 -17 11
-28 -5 -18 -5 -17 -12 3 -4 13 -18 24 -36 28 -16 4 -29 11 -29 16 0 19 -21 8
-30 -16 -5 -14 -13 -25 -17 -24 -34 6 -48 -33 -17 -45 25 -10 34 -7 28 9 -4 9
-1 15 7 15 7 0 21 7 31 17 11 10 18 12 18 4 0 -6 -7 -14 -15 -17 -8 -4 -15
-11 -15 -18 0 -12 -35 -46 -48 -46 -5 0 -18 11 -30 25 -12 14 -28 25 -34 26
-7 0 -2 5 12 11 l25 10 -32 14 c-17 7 -37 22 -45 32 -7 10 -25 22 -40 26 -16
3 -28 10 -28 15 0 17 -71 54 -82 43 -13 -13 -5 -48 10 -44 16 3 16 -15 0 -20
-17 -6 31 -84 83 -137 51 -51 133 -107 180 -122 19 -7 48 -21 64 -33 46 -33
166 -93 202 -101 18 -3 54 -17 80 -30 27 -12 98 -37 158 -53 194 -55 253 -80
204 -90 -25 -5 -299 60 -331 78 -10 6 -24 10 -32 10 -7 0 -19 7 -26 15 -7 8
-29 15 -49 15 -20 0 -48 6 -63 14 -15 8 -52 22 -82 30 -31 9 -60 25 -65 35 -6
10 -27 26 -48 36 -20 10 -51 33 -68 50 -17 18 -42 35 -55 37 -14 1 -29 13 -34
25 -8 17 -62 53 -81 53 -10 0 13 -45 24 -46 6 -1 15 -2 20 -3 4 0 7 -11 5 -23
-7 -47 190 -188 413 -295 189 -90 511 -195 708 -229 50 -8 110 -22 135 -29 73
-23 566 -84 682 -85 31 0 60 -5 64 -11 5 -8 -8 -9 -42 -5 -27 3 -128 13 -224
21 -174 15 -356 40 -500 70 -41 8 -111 22 -155 30 -44 8 -138 31 -210 51 -71
20 -143 40 -160 44 -16 5 -79 27 -140 49 l-110 41 -38 -42 c-82 -93 -168 -240
-205 -353 -39 -116 -60 -482 -47 -826 l7 -207 167 -41 c880 -216 1742 -334
2461 -334 480 -1 863 34 1425 129 404 68 1084 227 1108 258 5 6 6 169 3 361
-7 554 -33 676 -191 915 -64 95 -181 232 -215 250 -14 7 -23 6 -34 -5 -8 -8
-18 -15 -23 -15 -4 0 -21 -7 -38 -16 -44 -23 -246 -97 -350 -128 -49 -15 -110
-33 -135 -41 -119 -36 -444 -105 -493 -105 -41 0 -7 12 74 25 109 18 216 40
309 66 41 11 86 22 100 25 129 27 539 184 540 207 0 4 7 7 15 7 9 0 12 6 8 16
-5 13 -2 15 17 9 14 -5 20 -3 16 3 -3 6 2 13 11 15 13 3 12 5 -5 6 -13 0 -32
6 -43 11 -13 7 -19 7 -19 0 0 -12 -32 -13 -46 -2 -10 10 -57 -11 -52 -24 2 -4
-19 -13 -47 -20 -38 -10 -51 -10 -58 -1 -7 9 -10 9 -13 0 -3 -7 -21 -15 -40
-19 -19 -3 -34 -11 -34 -16 0 -6 -17 -8 -43 -4 -35 5 -48 3 -67 -14 -13 -11
-35 -20 -49 -20 -14 0 -46 -6 -71 -14 -25 -7 -51 -11 -57 -9 -7 3 -13 -1 -13
-7 0 -9 -11 -11 -35 -7 -20 3 -37 1 -41 -5 -4 -6 -23 -8 -44 -5 -21 3 -42 1
-47 -4 -12 -12 -147 -16 -151 -4 -2 6 65 28 150 51 338 91 393 106 481 135 79
27 213 78 282 109 11 4 45 19 75 33 30 13 67 29 81 35 46 18 254 160 300 204
24 24 57 62 73 86 28 40 28 44 16 82 -7 22 -15 40 -17 40 -12 0 -43 -43 -43
-60 0 -11 -6 -20 -13 -20 -7 0 -20 -18 -29 -40 -23 -52 -48 -65 -76 -40 -12
11 -24 20 -27 20 -11 0 7 -45 23 -57 14 -12 14 -13 -1 -13 -9 0 -17 -7 -17
-16 0 -10 -7 -14 -22 -12 -15 2 -22 -2 -20 -10 2 -9 -4 -12 -16 -8 -25 8 -52
-2 -52 -20 0 -16 -26 -19 -35 -5 -3 6 7 16 21 23 15 7 28 21 30 31 3 22 -2 22
-33 -3 -48 -38 -37 -9 15 40 47 44 51 52 46 82 -9 45 -69 165 -103 205 -20 24
-32 31 -49 26 -12 -3 -22 -9 -22 -14 0 -5 -9 -9 -20 -9 -11 0 -20 5 -20 10 0
6 -10 14 -22 19 -18 7 -28 2 -48 -21 -18 -21 -38 -31 -68 -35 -32 -4 -42 -10
-42 -24 0 -11 -4 -19 -10 -19 -5 0 -10 6 -10 14 0 8 -7 16 -15 20 -9 3 -15 0
-15 -9 0 -8 5 -15 10 -15 6 0 10 -7 10 -16 0 -10 -6 -14 -14 -11 -10 4 -13 1
-10 -7 3 -7 -1 -16 -9 -19 -12 -5 -11 -17 8 -75 25 -77 100 -222 122 -235 21
-13 15 -27 -12 -27 -14 0 -25 -6 -25 -13 0 -6 -17 -17 -37 -24 -54 -17 -81 5
-89 73 -1 16 2 20 16 17 10 -3 21 0 24 6 4 5 13 8 21 4 21 -7 19 6 -5 42 -20
28 -50 90 -63 127 -4 10 -12 15 -20 12 -8 -3 -23 6 -34 19 -17 23 -20 23 -31
9 -9 -15 -11 -14 -12 8 -1 14 -4 19 -7 12 -2 -6 -8 -10 -13 -7 -15 9 -21 -34
-11 -87 0 -4 7 -5 14 -3 19 7 55 -24 39 -34 -9 -5 -6 -15 13 -37 14 -16 25
-36 25 -44 0 -10 7 -7 20 10 18 24 20 24 37 8 16 -17 16 -18 0 -18 -10 0 -28
-7 -41 -16 -24 -15 -44 -5 -31 16 3 6 1 10 -6 10 -7 0 -9 -10 -7 -25 3 -13 1
-22 -3 -19 -5 3 -9 1 -9 -5 0 -5 5 -13 10 -16 18 -11 10 -23 -15 -21 -14 0
-28 8 -30 18 -4 11 -17 16 -41 16 -43 0 -40 -15 7 -41 37 -21 49 -34 49 -57
-1 -12 -3 -12 -14 3 -7 9 -24 17 -38 17 -30 0 -58 28 -58 58 0 12 -4 22 -10
22 -5 0 -10 7 -10 15 0 8 -7 15 -15 15 -8 0 -15 7 -15 15 0 8 7 15 15 15 9 0
18 7 21 15 7 16 30 20 36 6 4 -11 48 5 48 17 0 5 -13 9 -29 9 -27 0 -98 44
-127 80 -9 11 -12 10 -17 -6 -3 -11 1 -22 8 -25 8 -3 15 -15 17 -28 2 -15 9
-22 20 -20 22 3 34 -18 17 -29 -27 -17 -49 -10 -49 15 0 21 -4 24 -34 23 -27
-1 -41 7 -66 33 -44 47 -62 84 -48 98 7 7 8 15 3 19 -4 5 -10 2 -12 -4 -8 -21
-22 -15 -16 7 3 11 12 20 19 20 8 0 13 5 11 11 -1 6 4 14 12 17 9 3 11 0 6 -8
-4 -7 -2 -16 6 -21 11 -6 10 -11 -3 -26 -15 -17 -13 -21 27 -65 44 -49 65 -60
65 -33 0 8 -4 15 -9 15 -5 0 -21 16 -35 35 l-27 35 24 35 24 35 11 -25 c7 -15
17 -22 25 -19 10 3 16 -5 21 -27 3 -18 9 -29 13 -26 10 10 33 -13 33 -33 0
-10 7 -21 16 -24 14 -5 16 -1 10 26 -3 18 -16 40 -27 49 -11 8 -24 31 -28 49
-7 35 -31 54 -31 25 0 -15 -3 -15 -15 -5 -20 16 -9 28 33 36 21 4 32 3 32 -5
0 -6 7 -11 15 -11 8 0 15 7 15 15 0 8 5 15 10 15 6 0 10 -7 10 -15 0 -8 -5
-15 -12 -15 -6 0 4 -14 23 -30 34 -31 55 -24 25 9 -22 25 -20 46 9 77 19 20
25 23 25 10 0 -9 5 -16 10 -16 12 0 13 11 2 25 -9 13 -61 14 -59 1 2 -10 -40
-16 -65 -9 -10 2 -18 11 -18 19 0 8 -8 14 -17 14 -10 0 -28 3 -40 6 -13 4 -23
2 -23 -4 0 -5 17 -13 38 -17 20 -4 30 -10 22 -13 -8 -2 -23 -11 -32 -19 -9 -8
-22 -12 -28 -8 -6 4 -17 1 -25 -5 -8 -7 -15 -9 -15 -5 0 4 -7 2 -15 -5 -8 -7
-15 -10 -15 -7 0 3 -16 1 -35 -3 -32 -7 -51 3 -23 12 6 2 8 10 4 16 -11 18
-26 15 -26 -5 0 -10 -4 -14 -8 -8 -4 6 -22 11 -39 13 -28 3 -33 0 -33 -17 0
-21 -25 -30 -32 -12 -5 14 -78 25 -78 12 0 -15 -43 -14 -58 1 -7 7 -12 8 -12
3 0 -6 -44 -11 -100 -11 -55 -1 -100 2 -100 6 0 12 47 29 56 20 5 -4 20 -3 34
3 14 5 41 11 60 13 19 1 37 3 40 4 3 1 10 3 15 4 77 13 243 53 365 90 126 37
167 51 178 59 7 6 30 12 50 14 20 2 57 10 82 17 25 8 83 24 130 36 168 44 336
118 426 187 16 12 58 42 94 66 141 95 172 143 166 257 -3 40 -9 77 -14 82 -6
6 -9 16 -6 22 4 13 -92 60 -106 51 -6 -4 -15 6 -20 22 -6 15 -22 49 -35 74
-35 66 -32 97 8 90 16 -3 77 41 71 50 -3 5 -7 22 -10 37 -4 25 -3 26 10 8 16
-20 41 -12 32 10 -3 8 1 14 10 14 8 0 13 4 9 10 -3 5 6 17 20 26 29 19 33 34
6 27 -10 -3 -22 0 -25 6 -5 7 3 11 21 11 15 0 37 7 47 15 25 19 68 20 60 3 -3
-7 -27 -29 -54 -48 -28 -19 -50 -39 -50 -43 0 -11 44 3 48 14 2 5 14 9 27 9
25 0 85 62 66 68 -17 6 -13 20 10 33 17 9 23 8 30 -2 8 -14 8 -13 24 36 3 12
10 12 36 3 25 -9 34 -8 37 1 5 14 28 38 49 49 26 15 27 81 2 129 -12 24 -28
48 -36 54 -7 6 -13 17 -13 23 0 7 -13 25 -30 41 -16 15 -27 32 -24 36 2 4 -6
17 -18 28 -16 15 -24 18 -29 9 -6 -9 -11 -9 -23 1 -23 19 -21 44 3 36 16 -5
18 -2 14 15 -3 11 -10 20 -16 20 -16 0 -59 51 -53 66 3 7 -6 17 -22 23 -15 5
-21 10 -15 10 13 1 -15 48 -159 265 -43 65 -78 123 -78 127 0 20 17 5 55 -48
22 -31 45 -61 50 -67 6 -6 18 -24 28 -39 10 -15 22 -25 27 -22 6 4 10 -1 10
-9 0 -23 24 -20 57 7 15 13 48 32 73 42 41 18 150 91 150 102 0 5 -38 -15 -85
-47 -53 -36 -104 -60 -124 -59 -14 0 -14 1 -1 6 8 3 26 17 39 29 13 13 31 24
40 24 11 0 12 3 4 8 -8 5 10 25 55 59 37 29 114 97 171 153 98 96 123 113 106
73 -9 -20 -11 -30 -13 -55 -1 -9 -9 -23 -17 -32 -13 -12 -20 -49 -25 -119 0
-4 -11 -12 -25 -17 -14 -5 -25 -14 -25 -20 0 -5 -7 -10 -15 -10 -8 0 -15 -9
-15 -20 0 -13 -7 -20 -20 -20 -13 0 -20 -7 -20 -20 0 -11 -5 -20 -11 -20 -5 0
-7 5 -4 10 8 12 -5 13 -24 1 -7 -5 -11 -14 -7 -20 5 -7 1 -8 -10 -4 -14 5 -16
3 -11 -11 5 -14 3 -17 -8 -12 -9 3 -15 0 -15 -9 0 -25 -18 -17 -22 9 l-3 25
-45 -31 c-25 -17 -62 -40 -82 -50 -21 -11 -38 -24 -38 -28 0 -12 29 -40 41
-40 5 0 9 -6 9 -14 0 -26 47 -25 78 3 15 14 41 35 56 46 57 40 122 99 142 129
12 17 33 41 48 53 14 13 26 30 26 38 0 8 5 15 11 15 7 0 9 -9 6 -22 -3 -13 -9
-41 -12 -63 -4 -22 -12 -53 -18 -70 -11 -29 -54 -74 -70 -75 -5 0 -17 -10 -28
-22 -10 -13 -18 -17 -19 -10 0 20 -16 14 -17 -8 -2 -20 -54 -72 -106 -103 -20
-13 -26 -22 -19 -29 7 -7 17 -3 31 11 12 12 24 21 29 21 4 0 25 17 48 38 75
68 122 104 130 101 11 -5 5 -51 -7 -63 -13 -14 -11 -38 2 -34 10 3 47 92 55
133 2 11 12 52 22 90 16 58 25 74 54 95 20 14 45 40 57 58 12 17 26 32 31 32
12 0 12 -95 1 -193 -6 -62 -11 -72 -42 -99 -19 -16 -75 -68 -126 -115 -90 -82
-119 -106 -195 -158 -34 -23 -37 -27 -26 -50 12 -28 45 -34 54 -10 4 8 16 15
28 15 15 0 27 9 34 25 6 14 20 25 29 25 17 0 39 24 41 45 0 6 11 12 24 15 13
3 27 16 33 28 5 12 15 22 21 22 12 0 54 42 54 54 0 4 11 24 25 44 l26 37 -3
-101 -3 -101 30 21 c17 12 32 25 34 29 2 5 18 22 37 39 19 17 32 33 29 36 -2
3 -24 -14 -47 -36 -23 -23 -43 -40 -45 -38 -1 1 8 47 22 100 27 105 32 175 15
207 -26 48 34 3 71 -53 35 -55 49 -49 49 21 0 32 3 73 6 90 5 25 3 31 -10 31
-22 0 -56 57 -56 94 0 21 11 39 42 67 24 22 51 39 60 39 9 0 19 4 23 9 3 5 27
17 54 26 27 9 56 26 65 38 8 12 37 47 65 77 52 56 59 74 40 100 -9 13 -10 13
-6 -2 6 -17 -11 -28 -42 -28 -10 0 -28 -11 -41 -25 -13 -14 -25 -23 -27 -21
-2 2 -21 -14 -42 -35 -28 -29 -47 -39 -70 -39 -17 0 -31 -4 -31 -9 0 -4 -19
-21 -42 -37 -24 -16 -48 -35 -54 -43 -19 -24 -36 -2 -33 43 4 48 -9 106 -22
106 -5 0 -9 10 -9 23 0 12 -7 40 -15 62 -20 56 -19 66 15 116 31 45 38 87 19
106 -8 8 -5 13 10 18 12 3 21 13 21 21 0 8 5 14 12 14 6 0 4 7 -5 18 -10 10
-17 23 -17 29 0 15 36 44 50 41 7 -2 16 8 19 21 8 29 31 40 31 15 0 -24 16 -6
24 26 3 14 3 19 0 13 -9 -20 -34 -15 -34 6 0 10 -7 21 -15 25 -9 3 -15 0 -15
-9 0 -8 -9 -19 -21 -25 -16 -9 -19 -17 -14 -41 5 -24 3 -29 -12 -29 -34 -1
-54 -25 -47 -57 4 -22 2 -32 -10 -36 -14 -6 -14 -10 -4 -26 17 -28 2 -38 -22
-16 -18 16 -20 16 -20 2 0 -10 6 -17 14 -17 24 0 26 -14 7 -39 -24 -31 -50
-17 -68 36 -13 38 -13 38 -8 -22 2 -33 12 -82 21 -108 11 -33 13 -52 6 -59 -7
-7 -14 -4 -21 11 -6 11 -11 24 -10 28 4 22 -2 53 -10 53 -5 0 -24 -15 -43 -34
-18 -18 -43 -35 -53 -37 -11 -2 -24 -14 -30 -27 -5 -12 -17 -22 -26 -22 -12 0
-16 -6 -12 -20 3 -12 0 -20 -8 -20 -17 0 -79 -42 -79 -54 0 -5 14 -6 30 -2 22
4 30 2 30 -9 0 -8 -7 -15 -15 -15 -9 0 -18 -6 -21 -14 -3 -8 -15 -17 -28 -20
-12 -3 -59 -40 -104 -83 -92 -88 -136 -125 -202 -169 -58 -38 -78 -46 -86 -33
-7 12 15 41 26 34 5 -3 11 8 15 24 3 16 16 33 31 39 13 7 23 17 22 24 -2 6 6
14 17 16 11 2 34 18 51 35 43 45 99 93 101 87 2 -3 21 17 43 44 81 98 148 166
163 166 8 0 17 10 21 23 3 12 26 46 51 75 40 48 61 93 35 77 -5 -3 -10 -2 -10
3 0 6 6 12 13 15 7 2 23 37 36 76 13 39 36 90 51 113 15 24 39 64 54 90 33 58
52 73 42 32 -7 -28 -7 -28 8 -8 37 52 128 232 124 245 -2 6 -17 -11 -33 -37
l-30 -47 -11 39 c-13 46 -11 54 21 54 18 0 29 9 41 36 15 31 19 34 24 19 5
-13 9 -15 14 -7 4 7 4 17 1 22 -3 6 -2 10 3 10 8 0 32 43 32 57 0 3 -9 -2 -21
-13 -11 -10 -19 -14 -18 -9 1 6 -1 18 -6 28 -10 25 -4 29 54 33 55 4 63 -5 40
-47 -8 -17 -7 -23 7 -33 15 -11 16 -18 7 -42 -6 -16 -14 -38 -17 -48 -13 -37
-26 -2 -15 38 14 52 7 54 -19 3 -47 -94 -130 -273 -136 -294 -4 -13 -11 -23
-16 -23 -4 0 -10 -10 -13 -21 -4 -14 -11 -20 -20 -16 -10 4 -13 0 -10 -12 2
-10 -12 -51 -31 -91 -20 -40 -33 -76 -30 -79 8 -9 31 25 66 99 18 36 38 73 46
82 34 40 112 194 112 221 0 24 30 68 41 61 5 -3 4 -15 -3 -27 -6 -12 -10 -23
-9 -25 9 -9 -14 -87 -30 -103 -10 -10 -19 -27 -19 -36 0 -20 74 -169 97 -195
8 -9 20 -36 28 -60 16 -51 75 -194 93 -223 20 -35 13 -3 -23 100 -41 119 -40
149 11 354 36 141 40 167 23 138 -10 -17 -26 -72 -58 -196 -10 -36 -22 -66
-28 -68 -7 -3 -19 10 -28 27 -15 29 -15 36 -1 76 8 24 11 44 5 44 -5 0 -9 -8
-9 -19 0 -10 -7 -24 -15 -31 -8 -7 -15 -19 -15 -26 0 -8 -3 -14 -6 -14 -12 0
-33 34 -34 52 0 23 59 157 79 182 9 10 15 20 13 22 -4 6 17 82 34 124 11 25
13 59 10 117 -5 73 -3 81 11 76 27 -11 8 87 -23 112 -13 12 -24 28 -24 38 0
17 -39 26 -41 10z m-7519 -405 c0 -24 36 -163 50 -193 25 -54 32 -75 36 -109
3 -16 11 -37 19 -46 8 -9 15 -25 15 -36 0 -11 4 -24 9 -29 10 -11 55 -151 56
-175 1 -8 6 -25 13 -36 6 -12 8 -25 4 -29 -4 -4 4 -4 17 0 21 6 23 5 17 -11
-4 -11 -9 -30 -10 -44 -2 -14 -1 -17 1 -7 7 30 27 13 48 -41 11 -29 23 -52 26
-52 13 0 19 51 8 71 -6 11 -8 23 -5 26 9 9 26 -8 26 -27 0 -11 9 -24 19 -29
17 -9 18 -8 14 12 -3 12 -16 36 -28 52 -31 42 -55 91 -55 112 0 10 -16 36 -35
57 -19 22 -35 46 -35 53 0 8 -9 32 -19 54 -19 39 -19 39 2 51 16 8 22 8 25 -1
2 -6 14 -8 28 -5 18 5 24 2 24 -9 0 -9 6 -20 14 -24 7 -4 23 -27 35 -50 20
-41 41 -63 41 -45 0 5 -9 20 -19 34 -11 13 -23 37 -26 51 -6 23 -4 26 10 21 9
-4 21 -18 27 -33 6 -15 12 -21 15 -13 3 7 0 18 -5 25 -7 8 -7 18 -2 27 13 21
38 -5 100 -108 50 -81 165 -229 203 -261 10 -7 17 -18 17 -23 0 -5 19 -30 43
-55 23 -26 67 -73 97 -106 142 -155 315 -318 385 -363 33 -21 63 -43 67 -49
14 -19 8 -35 -14 -35 -29 0 -72 26 -123 75 -22 21 -58 51 -80 67 -22 16 -69
56 -105 88 -101 91 -124 110 -134 110 -5 0 -43 37 -85 82 -93 101 -153 162
-206 209 -39 35 -48 46 -83 101 -19 32 -38 38 -22 8 6 -11 8 -20 5 -20 -4 0
16 -26 44 -58 28 -32 51 -65 51 -72 0 -7 11 -28 25 -46 14 -18 24 -37 23 -41
-5 -16 26 -60 87 -123 62 -65 93 -110 77 -110 -20 0 -192 208 -186 225 3 6 -7
17 -21 23 -14 6 -25 18 -25 27 0 8 -4 15 -8 15 -5 0 -23 33 -41 74 -18 41 -39
77 -47 80 -8 3 -14 14 -14 25 0 11 -3 21 -7 23 -5 2 -22 30 -39 63 -33 64 -58
80 -67 44 -4 -16 0 -27 13 -36 11 -8 20 -20 20 -28 0 -8 11 -25 25 -39 14 -14
25 -32 25 -39 0 -8 7 -17 15 -21 8 -3 15 -15 15 -26 0 -11 5 -20 10 -20 6 0
10 -7 10 -15 0 -7 6 -18 13 -22 16 -10 79 -99 103 -144 9 -19 24 -41 33 -49 9
-8 52 -55 95 -105 44 -49 104 -111 133 -138 30 -26 74 -65 98 -88 23 -22 51
-46 60 -53 11 -8 15 -18 10 -26 -6 -9 -4 -11 4 -5 8 4 25 -1 42 -14 31 -23 39
-26 39 -13 0 10 -99 112 -109 112 -4 0 -29 20 -57 45 -27 24 -64 55 -81 67
-44 31 -41 42 7 35 38 -5 107 -52 210 -144 33 -29 129 -93 141 -93 5 0 9 -4 9
-10 0 -5 5 -10 12 -10 19 0 48 -31 48 -52 0 -12 -7 -18 -24 -18 -19 0 -23 -4
-19 -20 7 -26 -3 -25 -52 5 -69 42 -86 47 -99 30 -8 -12 -18 -13 -43 -6 -17 5
-34 6 -38 3 -3 -3 -8 4 -12 16 -3 12 -9 22 -13 22 -5 0 -32 19 -62 43 -68 56
-95 64 -95 30 0 -16 2 -21 7 -13 8 14 30 5 30 -11 0 -6 11 -25 25 -43 14 -18
28 -47 31 -64 6 -29 24 -46 24 -22 0 18 22 10 27 -9 3 -12 17 -23 34 -26 16
-4 32 -12 36 -19 5 -6 28 -27 53 -46 25 -19 52 -44 61 -54 17 -20 39 -15 39
10 0 8 7 14 15 14 8 0 15 -3 15 -6 0 -19 -91 -159 -115 -176 -35 -26 -33 15 3
50 31 33 56 72 48 79 -2 3 -20 6 -38 7 -29 1 -172 85 -228 134 -42 36 -101 81
-112 85 -10 3 -10 7 0 19 10 12 10 18 1 24 -7 4 -16 0 -21 -10 -8 -14 -17 -9
-66 37 -31 30 -74 69 -94 87 -41 35 -47 50 -21 50 9 0 14 -3 11 -6 -4 -3 2
-14 13 -25 23 -23 30 -24 23 -4 -7 18 -4 18 30 5 33 -12 206 -21 206 -10 0 4
-20 16 -45 27 -25 10 -45 23 -45 28 0 6 -8 18 -17 27 -21 20 -31 32 -62 78
-13 19 -44 56 -68 81 -30 31 -43 52 -41 69 2 18 -3 25 -24 31 -32 8 -34 6 -12
-16 9 -9 17 -27 17 -41 0 -14 12 -36 28 -52 16 -15 29 -31 29 -37 0 -5 29 -41
65 -80 36 -38 65 -71 65 -73 0 -1 -17 5 -37 14 -41 17 -85 29 -145 39 -21 3
-38 10 -38 15 0 4 -13 11 -30 15 -26 6 -30 11 -30 38 0 18 -7 70 -14 117 -15
89 -13 107 8 77 7 -9 17 -17 22 -17 5 0 10 -14 10 -32 1 -17 9 -37 18 -43 18
-13 22 -35 6 -35 -5 0 -7 -7 -4 -15 4 -10 13 -13 25 -10 11 4 19 2 19 -4 0 -6
-4 -11 -10 -11 -5 0 -10 -7 -10 -15 0 -9 9 -15 24 -15 14 0 31 -7 40 -15 8 -8
19 -15 25 -15 9 0 -6 24 -76 122 -13 17 -23 39 -23 48 0 10 -7 23 -15 30 -11
9 -14 23 -10 44 4 21 3 27 -3 17 -14 -20 -52 -4 -52 22 -1 20 -21 57 -32 57
-2 0 -3 -14 0 -31 4 -25 0 -31 -17 -36 -18 -5 -19 -7 -7 -17 20 -15 10 -66
-13 -66 -26 0 -121 160 -121 205 0 12 -9 41 -21 64 -11 24 -18 52 -16 62 3 11
0 22 -7 27 -17 10 -29 42 -27 68 1 12 -9 35 -23 52 -17 19 -26 42 -26 63 0 44
-23 152 -45 209 -17 44 -54 193 -55 218 0 6 5 12 10 12 6 0 10 -1 10 -2z
m7222 -862 c3 -14 1 -29 -4 -34 -6 -6 -5 -24 1 -48 6 -22 12 -70 14 -107 3
-65 2 -69 -24 -88 -15 -10 -31 -19 -35 -19 -4 0 -16 -8 -26 -17 -30 -27 -36
-4 -23 87 7 47 11 102 9 122 -3 20 0 39 6 43 5 3 10 14 10 23 0 18 49 74 60
67 4 -3 10 -16 12 -29z m-3248 -71 c47 -51 43 -254 -5 -263 -26 -5 -38 45 -34
138 4 114 0 130 -35 130 -16 0 -32 5 -35 10 -4 6 12 10 40 10 36 0 51 -5 69
-25z m3049 8 c-3 -10 -62 -74 -130 -141 -119 -118 -141 -148 -93 -122 12 6 25
9 28 5 3 -3 -3 -8 -15 -11 -11 -3 -27 -17 -34 -31 -7 -13 -21 -29 -31 -34 -10
-5 -18 -15 -18 -22 0 -12 -63 -70 -96 -90 -17 -10 -20 28 -4 38 20 13 10 26
-12 14 -18 -10 -24 -8 -35 7 -7 10 -13 22 -13 27 0 11 49 59 160 157 40 36 97
89 126 118 39 38 61 52 81 52 17 0 36 9 48 25 24 28 47 33 38 8z m-6408 -488
c143 -141 190 -185 201 -185 10 0 95 -73 90 -77 -2 -3 -18 3 -35 11 -40 21
-95 22 -87 1 6 -16 -11 -20 -33 -6 -10 6 -10 10 -1 16 6 4 9 13 6 21 -3 9 0
11 12 7 15 -6 15 -4 4 10 -8 8 -20 13 -28 10 -8 -3 -24 1 -37 9 -28 19 -98 30
-115 19 -12 -7 -12 -12 -1 -30 17 -26 25 -26 38 -4 9 17 11 16 30 -1 12 -11
21 -25 21 -31 0 -7 6 -15 13 -18 6 -3 59 -39 116 -81 57 -42 107 -74 110 -70
3 3 -5 15 -19 25 -14 11 -37 31 -52 45 -14 13 -31 24 -37 24 -6 0 -11 7 -11
15 0 18 5 18 30 5 15 -8 21 -6 29 7 7 11 14 14 18 8 5 -5 24 -18 43 -28 48
-25 83 -54 78 -67 -2 -7 -21 1 -44 17 -57 40 -85 55 -91 49 -7 -6 48 -55 63
-56 6 0 21 -11 34 -25 22 -23 22 -26 7 -43 -10 -10 -17 -24 -17 -30 0 -19 -21
-14 -64 15 -23 16 -43 30 -46 33 -3 3 -30 21 -60 40 -30 19 -77 52 -104 74
-28 23 -56 40 -64 38 -7 -2 -21 3 -30 10 -11 8 -10 5 3 -11 l20 -24 -23 5
c-13 4 -20 2 -16 -4 3 -5 15 -7 26 -5 14 4 38 -9 76 -40 32 -26 72 -55 90 -66
17 -10 32 -22 32 -26 0 -4 12 -14 28 -23 49 -29 82 -66 82 -93 0 -31 -5 -31
-49 -2 -66 43 -78 52 -161 112 -45 33 -98 70 -119 81 -34 20 -38 28 -64 125
-39 146 -76 308 -78 349 -4 53 10 70 29 34 8 -16 79 -92 157 -169z m2698 165
c-1 -14 -5 -53 -9 -86 -4 -39 -2 -74 5 -95 10 -28 9 -36 -4 -45 -21 -16 -24
-91 -26 -629 -1 -271 -5 -457 -11 -468 -12 -24 -18 -87 -8 -87 11 0 22 40 20
73 -1 23 2 28 17 25 15 -3 18 -12 15 -63 -1 -32 -9 -72 -17 -88 -8 -17 -14
-57 -14 -100 1 -110 -11 -608 -15 -642 -2 -16 -4 -38 -5 -47 0 -10 -6 -18 -12
-18 -5 0 -8 4 -5 9 3 5 -3 11 -14 14 -12 3 -20 14 -20 26 0 13 -6 21 -16 21
-13 0 -15 7 -10 32 3 17 8 33 10 36 10 9 26 -10 26 -31 1 -12 6 -35 13 -50 11
-26 12 -22 10 40 0 37 -4 76 -8 86 -4 9 -3 17 2 17 12 0 5 134 -7 138 -5 2 -6
31 -3 65 4 34 6 87 5 117 -7 248 -8 985 -2 1105 5 83 11 213 14 290 8 215 18
335 27 341 5 3 9 14 9 25 0 14 5 19 18 17 11 -2 16 -12 15 -28z m77 -127 c5
-253 3 -372 -8 -411 -10 -34 -10 -48 2 -76 11 -27 13 -67 7 -197 -4 -94 -12
-173 -19 -186 -9 -17 -10 -32 -1 -65 17 -63 27 -302 16 -383 -11 -87 -10 -171
4 -196 10 -20 5 -231 -6 -249 -3 -5 -1 -11 4 -14 6 -4 6 -17 0 -34 -5 -15 -11
-48 -14 -74 -4 -27 -10 -48 -16 -48 -9 0 -12 200 -11 803 0 147 -4 267 -8 267
-5 0 -7 28 -5 63 6 94 15 350 20 557 4 203 14 320 25 320 5 0 9 -35 10 -77z
m-2789 -435 c99 -96 178 -167 205 -184 16 -11 37 -26 47 -34 9 -8 27 -18 40
-22 21 -6 20 -6 -4 -7 -15 -1 -38 8 -52 19 -14 11 -32 20 -41 20 -9 0 -16 5
-16 10 0 6 -5 10 -11 10 -31 0 -210 146 -222 183 -6 15 0 47 8 47 1 0 22 -19
46 -42z m5644 -1788 c5 -8 11 -8 20 0 17 14 40 4 54 -26 17 -39 14 -56 -9 -49
-14 5 -20 2 -20 -10 0 -12 -6 -15 -20 -10 -12 4 -20 2 -20 -5 0 -7 -6 -10 -14
-7 -8 3 -17 -1 -20 -8 -3 -8 -12 -12 -19 -9 -8 3 -17 -2 -20 -10 -4 -9 -13
-13 -22 -10 -8 4 -15 1 -15 -6 0 -7 -6 -10 -14 -7 -8 3 -17 -1 -20 -10 -4 -8
-13 -13 -21 -9 -9 3 -15 0 -15 -9 0 -27 -27 -16 -43 17 -15 30 -13 58 3 58 5
0 11 -6 13 -12 3 -8 6 -5 6 6 1 13 6 17 21 13 13 -3 20 0 20 10 0 9 6 13 15 9
8 -3 19 3 25 12 8 12 13 14 16 5 8 -19 24 -15 17 4 -5 13 -2 15 15 11 17 -5
22 -2 22 14 0 14 5 18 16 14 13 -5 15 -2 11 14 -5 21 7 28 18 10z m-4590 -72
c14 -6 25 -15 25 -21 0 -5 7 -6 15 -3 9 3 18 -1 21 -9 3 -7 12 -11 20 -8 9 3
14 -1 14 -12 0 -12 5 -15 20 -10 16 5 20 2 20 -17 0 -19 2 -20 10 -8 9 13 12
12 25 -4 11 -14 15 -16 15 -5 1 10 4 9 15 -5 7 -10 18 -15 24 -12 17 11 23
-14 11 -45 -12 -28 -40 -41 -40 -18 0 6 -9 8 -20 4 -15 -5 -20 -2 -20 11 0 13
-3 14 -15 4 -12 -10 -15 -9 -15 5 0 12 -6 16 -20 12 -13 -3 -20 0 -20 9 0 8
-6 14 -12 13 -7 -1 -21 1 -30 4 -29 11 -48 16 -55 16 -3 -1 -10 6 -15 15 -5 8
-15 13 -23 10 -20 -8 -20 35 1 64 18 26 16 25 49 10z m2479 -9 c9 -9 -5 -40
-15 -33 -5 3 -9 -1 -9 -8 0 -8 -3 -9 -8 -3 -12 17 -55 17 -48 -1 3 -8 -1 -14
-9 -14 -8 0 -15 5 -15 12 0 6 -7 3 -15 -8 -10 -13 -14 -14 -15 -5 0 10 -3 11
-13 2 -10 -8 -17 -7 -26 2 -11 9 -15 9 -18 -2 -5 -11 -7 -11 -14 0 -6 9 -12
10 -16 4 -10 -13 -117 -19 -109 -6 3 5 -5 12 -19 15 -14 4 -25 11 -25 16 0 6
-7 10 -16 10 -11 0 -15 -6 -11 -20 3 -13 0 -20 -9 -20 -8 0 -14 7 -14 15 0 12
-8 14 -42 8 -50 -9 -136 -6 -199 6 -4 0 -10 8 -13 17 -5 13 -1 14 23 9 16 -3
32 -2 35 3 6 9 611 11 620 1z m1167 -7 c6 2 14 -3 16 -9 3 -8 -4 -13 -17 -13
-32 0 -20 -22 26 -45 24 -12 56 -18 83 -17 46 2 70 -15 71 -50 0 -11 7 -17 18
-16 36 3 52 -2 52 -17 0 -9 -9 -15 -25 -15 -14 0 -25 5 -25 10 0 6 -5 10 -11
10 -6 0 -20 10 -31 23 -18 20 -19 20 -13 2 17 -53 45 -184 45 -213 0 -38 -27
-74 -40 -53 -4 7 -10 39 -13 70 -7 60 -31 131 -46 131 -14 0 -21 -41 -15 -81
4 -25 2 -39 -7 -45 -7 -4 -14 -3 -17 4 -5 15 -23 16 -19 1 1 -6 -4 -14 -10
-16 -7 -3 -13 0 -13 6 0 6 -4 11 -10 11 -5 0 -10 -7 -10 -15 0 -18 -16 -20
-24 -2 -3 8 -8 7 -16 -6 -9 -13 -15 -15 -25 -7 -9 8 -14 6 -19 -6 -5 -13 -9
-14 -20 -5 -11 10 -16 8 -24 -5 -6 -11 -11 -13 -16 -5 -11 17 -26 13 -26 -6 0
-13 -3 -14 -12 -5 -17 17 -26 15 -30 -5 -6 -31 -40 15 -36 50 3 33 28 50 29
20 0 -14 3 -12 10 7 10 24 11 24 24 7 13 -17 14 -17 20 4 7 21 9 21 20 6 12
-16 13 -16 18 4 5 19 8 20 22 9 14 -12 18 -12 25 0 7 12 11 11 26 -1 16 -12
17 -12 11 3 -9 24 13 35 29 14 11 -16 13 -16 16 6 2 13 9 23 17 23 8 0 17 9
21 20 7 19 7 19 18 0 9 -17 11 -17 12 -4 0 9 -7 19 -15 23 -24 9 -17 26 10 26
14 0 25 -5 25 -12 0 -6 2 -9 5 -6 12 12 -18 55 -48 68 -40 17 -59 43 -73 97
-10 39 -9 41 7 32 10 -5 23 -8 30 -7z m-2721 -60 c0 -5 -14 -18 -31 -31 -25
-19 -28 -25 -18 -38 10 -12 10 -16 -2 -24 -10 -7 -4 -8 19 -4 17 4 32 4 32 1
0 -3 -13 -45 -30 -94 -19 -57 -30 -110 -30 -146 0 -44 -4 -57 -19 -66 -25 -13
-38 4 -21 25 9 11 9 15 1 15 -6 0 -11 16 -11 38 0 49 26 171 40 187 8 10 8 19
1 34 -7 12 -7 22 -1 26 5 3 6 13 3 21 -3 9 4 25 18 39 24 24 49 32 49 17z
m978 -53 c12 -9 19 -19 15 -22 -3 -4 2 -7 13 -8 14 0 15 -2 4 -6 -8 -4 -20
-13 -27 -22 -11 -14 -13 -14 -27 4 -13 17 -15 18 -16 3 0 -9 -3 -23 -6 -32 -7
-19 26 -22 44 -4 7 7 12 8 12 3 0 -5 6 0 14 10 14 19 46 15 46 -5 0 -6 -5 -8
-10 -5 -19 12 -24 -27 -5 -41 18 -13 18 -14 -3 -14 -12 0 -22 4 -22 9 0 18
-34 22 -47 6 -13 -18 -33 -12 -33 9 0 8 -7 19 -15 26 -12 10 -15 10 -15 -4 0
-9 -6 -16 -12 -16 -9 0 -8 -4 2 -11 12 -8 10 -9 -7 -4 -27 8 -29 -6 -7 -40 20
-30 34 -32 34 -5 0 11 4 20 9 20 12 0 21 -53 11 -64 -5 -5 -6 -15 -3 -23 4 -9
-3 -22 -16 -32 -17 -13 -21 -23 -16 -43 5 -17 12 -25 21 -21 10 4 14 -3 14
-21 0 -14 -4 -26 -10 -26 -5 0 -10 7 -10 15 0 19 -39 20 -46 1 -3 -8 -12 -12
-20 -9 -10 4 -14 -3 -14 -23 0 -43 -14 -18 -17 31 -2 24 1 47 7 50 6 4 10 -5
10 -19 0 -14 4 -26 9 -26 5 0 7 9 4 20 -3 11 0 20 6 20 6 0 11 -5 11 -11 0 -5
4 -8 9 -5 12 8 7 72 -8 90 -7 8 -9 25 -6 39 4 14 2 28 -4 31 -7 5 -11 -3 -11
-18 0 -36 -17 -32 -22 5 -3 20 0 33 9 36 7 3 13 15 13 27 0 14 10 28 25 36 14
7 25 17 25 22 0 15 -43 8 -56 -9 -8 -11 -13 -13 -14 -5 0 21 -20 13 -20 -8 0
-11 5 -20 10 -20 6 0 10 -5 10 -11 0 -6 -7 -8 -16 -5 -8 3 -12 2 -9 -3 3 -5
-4 -11 -15 -13 -18 -3 -18 -5 -5 -28 25 -44 28 -51 21 -58 -11 -10 -44 38 -48
70 -4 22 -1 28 15 28 15 0 18 5 12 29 -7 33 13 51 58 51 14 0 31 9 40 23 13
19 18 20 35 10 25 -15 50 5 30 25 -16 16 12 10 40 -9z m452 -4 c0 -7 5 -15 12
-17 6 -2 8 -10 4 -16 -9 -15 -36 -16 -36 -1 0 6 -6 17 -14 24 -12 12 -16 12
-26 0 -7 -8 -24 -15 -39 -15 -21 0 -31 -9 -50 -45 -26 -50 -41 -58 -33 -20 2
14 0 25 -4 25 -18 0 -39 -20 -39 -37 -1 -19 -7 -19 -65 -5 -24 5 -31 10 -22
16 11 6 10 13 -3 32 -14 22 -14 24 1 24 9 0 25 -10 36 -22 14 -17 21 -19 31
-9 9 9 9 14 -3 21 -12 7 -8 11 18 16 18 4 35 11 39 17 3 5 2 8 -3 4 -5 -3 -20
1 -34 8 -22 12 -18 13 49 14 41 0 75 2 77 3 1 2 25 1 53 0 34 -3 51 -8 51 -17z
m264 -71 c22 -21 20 -27 -6 -18 -19 6 -21 5 -11 -8 7 -8 10 -18 6 -21 -3 -4
-2 -7 4 -7 6 0 8 -12 5 -26 -3 -16 -1 -25 5 -21 14 9 10 -263 -5 -289 -6 -12
-21 -24 -32 -27 -19 -5 -21 -2 -15 39 3 24 7 63 10 87 3 23 -1 80 -10 127 -8
47 -15 94 -15 104 0 19 0 19 13 1 13 -17 14 -17 19 3 3 12 2 22 -3 24 -10 4 0
48 11 48 5 0 16 -7 24 -16z m-539 -101 c-12 -46 -23 -152 -20 -181 2 -15 6
-55 10 -90 l6 -63 -25 22 c-33 29 -50 111 -43 212 6 85 25 127 58 127 18 0 20
-4 14 -27z m-1064 -4 c4 -8 9 -7 14 1 6 10 11 9 21 -4 8 -11 14 -13 19 -7 9
16 25 13 25 -4 0 -8 5 -15 10 -15 6 0 10 5 10 10 0 6 5 10 10 10 6 0 10 -7 10
-15 0 -18 16 -20 24 -2 3 9 9 7 19 -6 11 -14 16 -15 20 -5 4 10 10 8 21 -6 9
-11 16 -14 16 -8 0 7 7 12 15 12 21 0 20 -64 -2 -81 -12 -10 -17 -11 -20 -2
-2 7 -11 9 -20 6 -8 -3 -19 0 -24 8 -7 11 -11 10 -23 -6 -13 -18 -15 -18 -21
-3 -4 9 -13 14 -21 11 -7 -3 -17 2 -20 11 -5 13 -9 14 -21 4 -11 -9 -16 -9
-22 0 -4 7 -15 10 -24 6 -10 -4 -17 -1 -17 6 0 7 -7 10 -16 6 -9 -3 -21 -3
-27 1 -7 4 -19 8 -27 8 -19 0 -25 38 -10 66 10 17 18 20 43 15 17 -4 34 -11
38 -17z m1499 -137 c0 -43 -13 -68 -29 -58 -6 4 -9 12 -6 17 4 5 2 9 -4 9 -5
0 -14 -8 -20 -17 -9 -17 -11 -17 -24 1 -14 19 -14 19 -26 0 -11 -18 -11 -18
-25 -1 -14 18 -15 18 -25 0 -10 -17 -12 -17 -21 0 -13 21 -30 22 -30 2 0 -21
-16 -19 -25 3 -6 16 -8 16 -21 -3 -14 -19 -16 -19 -25 -2 -6 9 -15 17 -20 17
-6 0 -8 -4 -4 -9 3 -5 0 -13 -6 -17 -6 -4 -16 1 -21 10 -11 20 -28 21 -28 1 0
-20 -16 -19 -24 1 -7 18 -8 84 -2 84 2 0 11 3 20 6 11 4 16 0 16 -12 1 -18 1
-18 11 -1 12 21 44 23 35 2 -7 -20 4 -19 20 3 12 16 13 16 27 -2 12 -17 14
-17 20 -2 8 20 27 21 27 1 0 -20 10 -19 26 3 13 16 15 16 27 0 12 -15 14 -15
24 0 10 16 12 15 27 -3 14 -18 15 -18 16 -2 0 16 10 21 38 18 15 -2 15 4 1 32
-7 15 -1 11 20 -11 23 -25 31 -42 31 -70z m1651 -769 c16 -10 29 -25 29 -35 0
-17 -13 -18 -157 -18 -90 0 -153 4 -147 9 8 8 115 44 159 54 44 10 88 6 116
-10z m-3211 -123 l75 -29 -312 0 -313 -1 0 30 0 30 238 -1 c237 0 237 0 312
-29z m3250 0 l0 -30 -312 1 -313 0 75 29 c75 29 75 29 313 29 l237 1 0 -30z
m-2817 -108 c77 -11 141 -23 145 -26 3 -3 -243 -6 -546 -6 -304 0 -552 3 -552
8 0 4 -3 17 -6 30 l-7 23 414 -4 c358 -3 433 -6 552 -25z m2817 24 c0 -3 -4
-16 -10 -30 l-10 -26 -546 0 c-301 0 -545 3 -541 6 3 3 68 14 144 25 76 10
143 21 148 23 13 6 815 7 815 2z m-2514 -123 c13 -14 24 -30 24 -34 0 -5 -276
-9 -613 -9 l-613 0 -17 29 c-9 15 -14 31 -10 35 4 3 276 6 605 6 l599 0 25
-27z m2474 18 c0 -6 -5 -22 -12 -36 l-11 -25 -614 0 c-337 0 -613 3 -613 6 0
16 24 46 43 54 31 12 1207 13 1207 1z m-2430 -130 c0 -17 -6 -31 -16 -35 -9
-3 -269 -6 -578 -6 l-563 0 -26 29 c-14 16 -23 32 -20 35 4 3 276 6 605 6
l598 0 0 -29z m2360 19 c0 -6 -11 -22 -24 -35 l-24 -24 -558 -1 c-401 0 -560
3 -570 11 -8 6 -14 22 -14 35 l0 24 595 0 c407 0 595 -3 595 -10z m-2400 -114
c0 -48 23 -46 -519 -46 l-507 0 -29 30 -29 30 542 0 c461 0 542 -2 542 -14z
m2290 -16 l-34 -30 -503 0 -503 0 -10 26 c-6 14 -10 27 -10 30 0 2 246 4 548
4 l547 -1 -35 -29z m-2350 -110 l-34 -30 -363 0 -364 0 -49 25 c-28 14 -50 28
-50 30 0 3 201 5 447 5 l447 0 -34 -30z m2224 19 c-3 -6 -26 -19 -51 -30 -41
-18 -72 -19 -407 -19 l-362 0 -29 30 -29 30 443 0 c315 0 440 -3 435 -11z
m-2388 -98 c-29 -47 -397 -47 -450 1 -6 4 95 8 223 8 128 0 230 -4 227 -9z
m2120 0 c-11 -17 -135 -36 -241 -36 -104 0 -198 16 -211 36 -3 5 99 9 226 9
127 0 229 -4 226 -9z"/>
<path d="M2082 10141 c-23 -46 -23 -50 -8 -79 9 -17 16 -38 16 -47 0 -8 4 -15
9 -15 5 0 15 -17 21 -37 7 -21 18 -51 25 -68 8 -16 26 -63 41 -102 15 -40 31
-73 36 -73 11 0 2 36 -29 127 -14 40 -22 81 -18 92 3 11 0 29 -7 40 -10 17 -9
23 5 39 16 18 16 21 0 53 -9 19 -21 37 -26 40 -5 4 -10 22 -11 40 -2 51 -27
47 -54 -10z"/>
<path d="M9813 10091 c4 -31 2 -38 -12 -37 -14 1 -16 -15 -18 -129 -1 -115 -6
-168 -29 -292 -8 -40 9 -44 25 -5 17 42 62 269 68 342 3 40 11 68 19 73 29 17
-7 87 -44 87 -11 0 -13 -9 -9 -39z"/>
<path d="M9194 9843 c-9 -21 -20 -49 -25 -63 -6 -13 -26 -50 -45 -81 -18 -31
-34 -61 -34 -67 0 -6 -11 -28 -25 -49 -51 -78 -90 -135 -105 -152 -17 -20 -37
-52 -57 -93 -8 -15 -18 -30 -24 -33 -20 -13 -7 -22 16 -12 13 7 27 23 30 37 3
14 20 37 37 50 62 50 108 106 128 158 11 29 20 59 20 67 0 8 5 17 11 20 12 8
61 112 79 170 7 22 16 48 21 57 11 23 11 28 -1 28 -5 0 -17 -17 -26 -37z"/>
<path d="M5890 9623 c0 -10 -7 -31 -15 -47 -8 -15 -13 -32 -10 -36 3 -5 1 -11
-5 -15 -6 -4 -10 5 -10 20 0 22 -3 26 -17 20 -10 -4 -29 -10 -42 -13 -22 -4
-23 -2 -17 22 3 14 3 26 -1 26 -5 1 -32 2 -61 4 -54 3 -79 -7 -40 -17 16 -5
19 -9 11 -19 -6 -7 -13 -23 -16 -35 -4 -19 -1 -23 19 -23 25 0 33 -15 12 -23
-13 -6 7 -28 106 -114 48 -43 49 -47 11 -43 -19 2 -18 0 4 -24 14 -14 29 -26
35 -25 7 0 6 3 -1 5 -13 6 -7 34 7 34 4 0 17 -16 29 -35 16 -27 27 -35 49 -35
25 0 33 7 53 50 13 28 27 50 31 50 5 0 8 7 8 15 0 24 58 83 111 113 27 15 49
30 49 35 0 4 -18 7 -41 7 -45 0 -50 20 -8 31 22 6 22 7 5 14 -11 5 -26 3 -37
-3 -15 -10 -22 -8 -39 10 -15 16 -30 21 -58 20 -24 -1 -32 1 -24 6 10 7 2 14
-27 26 -53 21 -71 20 -71 -1z"/>
<path d="M6263 9445 c-18 -8 -33 -18 -33 -24 0 -5 -9 -13 -20 -16 -23 -7 -27
-35 -5 -35 8 0 15 7 15 15 0 8 9 15 20 15 11 0 20 7 20 16 0 8 5 12 10 9 19
-12 10 -32 -25 -51 -19 -10 -35 -22 -35 -26 0 -5 -7 -8 -15 -8 -8 0 -15 5 -15
10 0 6 -4 10 -10 10 -5 0 -10 -8 -10 -17 0 -23 40 -103 51 -103 6 0 9 -8 7
-17 -2 -10 5 -19 16 -21 15 -3 18 0 13 18 -8 30 20 23 45 -11 16 -21 18 -31 9
-47 -6 -11 -11 -34 -11 -51 0 -29 3 -31 35 -31 22 0 38 6 41 15 4 8 13 15 21
15 8 0 11 -4 8 -10 -3 -5 3 -10 14 -10 31 0 25 13 -11 28 -18 7 -40 17 -48 21
-19 10 -25 41 -8 41 7 0 22 8 33 17 15 12 16 14 3 10 -14 -5 -18 3 -24 39 -4
30 -14 51 -32 64 -23 19 -25 19 -38 3 -7 -10 -15 -15 -19 -11 -8 8 36 138 47
138 5 0 8 5 8 10 0 14 -19 12 -57 -5z"/>
<path d="M6603 9453 c-15 -6 -17 -39 -3 -48 13 -8 13 -62 0 -70 -15 -9 -2 -25
21 -25 10 0 19 -6 19 -14 0 -8 13 -20 29 -27 19 -8 27 -18 24 -28 -3 -12 -1
-11 7 2 15 23 30 22 30 -3 0 -16 7 -20 30 -20 18 0 33 -6 36 -15 7 -18 44 -2
44 20 0 18 -39 85 -50 85 -4 0 -30 18 -56 40 -27 22 -55 38 -61 35 -7 -2 -13
0 -13 6 0 6 -7 9 -15 5 -11 -4 -15 2 -15 24 0 31 -8 40 -27 33z"/>
<path d="M4950 9425 c-7 -8 -20 -15 -29 -15 -10 0 -32 -11 -51 -25 -19 -14
-39 -25 -45 -25 -6 0 -22 -11 -35 -25 -17 -18 -30 -23 -47 -19 -14 4 -23 2
-23 -5 0 -8 -6 -8 -20 1 -16 11 -22 9 -40 -9 -11 -12 -20 -26 -20 -32 0 -5 -3
-11 -8 -13 -4 -1 -18 -16 -31 -33 l-23 -30 7 34 c6 26 4 32 -6 25 -40 -24 -99
-84 -99 -99 0 -6 -10 -17 -22 -25 -33 -22 -68 -58 -68 -69 0 -5 20 -13 45 -17
25 -3 45 -10 45 -15 0 -5 5 -9 12 -9 6 0 40 -11 74 -25 59 -24 148 -45 114
-28 -8 5 -16 24 -18 43 -4 47 -18 58 -25 21 -5 -24 -12 -31 -29 -30 -13 0 -17
3 -10 6 6 2 12 9 12 15 0 6 -8 7 -17 3 -47 -18 -80 -8 -54 18 6 6 11 21 11 33
0 23 37 56 78 68 23 8 27 22 13 45 -21 33 23 57 49 27 12 -16 136 -66 160 -66
9 0 0 14 -22 33 -70 62 -55 157 27 170 58 9 166 87 121 87 -7 0 -19 -7 -26
-15z"/>
<path d="M6419 9315 c0 -14 -1 -46 -1 -72 0 -27 -6 -51 -12 -55 -21 -14 69 -7
94 7 14 8 21 14 16 15 -5 0 -1 9 8 19 15 16 16 23 6 42 -35 64 -109 94 -111
44z"/>
<path d="M7270 8966 c-36 -13 -123 -42 -195 -65 -119 -38 -151 -45 -255 -56
-19 -2 -37 -5 -40 -6 -3 -1 -9 0 -15 1 -19 5 -99 -1 -109 -8 -6 -4 -27 -7 -46
-8 -19 -1 -42 -3 -50 -3 -9 -1 -17 -12 -18 -27 -2 -25 0 -26 41 -21 56 7 373
74 386 81 5 4 70 17 143 31 172 31 242 55 246 83 4 27 -6 27 -88 -2z"/>
<path d="M2128 8463 c2 -16 15 -43 29 -60 13 -18 21 -33 18 -33 -3 0 12 -26
35 -57 22 -32 46 -66 53 -77 75 -115 376 -415 467 -467 14 -8 36 -22 49 -31
34 -26 64 -23 31 2 -14 11 -28 20 -33 20 -20 0 -187 136 -187 152 0 5 10 6 23
2 18 -6 17 -2 -9 20 -37 31 -55 35 -29 6 10 -11 14 -20 8 -20 -12 0 -70 66
-88 100 -8 15 -24 30 -35 33 -12 3 -24 15 -27 26 -3 12 -11 21 -18 21 -7 0
-25 18 -41 41 -15 22 -47 58 -71 79 -24 20 -43 42 -43 47 0 6 -17 37 -37 69
-21 33 -49 81 -63 107 -28 53 -40 60 -32 20z"/>
<path d="M7566 8305 c3 -22 12 -60 20 -84 8 -25 14 -59 14 -76 0 -34 64 -118
126 -166 17 -13 38 -34 45 -46 8 -12 36 -50 63 -84 58 -75 74 -118 49 -136
-16 -12 -16 -13 0 -13 28 0 71 -58 95 -128 12 -36 22 -76 22 -88 0 -12 7 -27
15 -34 13 -11 15 -5 15 49 0 72 -17 119 -81 221 -25 41 -68 115 -94 164 -29
55 -75 118 -121 168 -79 86 -112 138 -138 215 -24 70 -37 87 -30 38z"/>
<path d="M9148 8165 c-54 -41 -101 -75 -105 -75 -12 0 -53 -46 -53 -59 0 -6 9
-20 20 -31 l20 -20 40 41 c22 23 40 46 40 51 0 4 7 8 15 8 8 0 15 3 15 8 0 4
27 36 60 71 56 60 70 81 53 81 -5 0 -52 -34 -105 -75z"/>
<path d="M7305 8040 c-81 -52 -101 -80 -39 -54 40 17 58 9 52 -22 -2 -12 -13
-20 -31 -22 -37 -4 -35 -22 3 -22 17 0 30 -4 30 -10 0 -5 7 -10 15 -10 8 0 15
5 15 11 0 7 11 9 30 5 17 -3 43 -9 58 -12 15 -3 32 -14 37 -24 23 -44 108
-163 130 -184 14 -13 25 -27 25 -32 1 -5 16 -27 35 -48 28 -32 42 -39 72 -41
29 -1 38 -5 43 -23 3 -12 13 -31 23 -42 10 -12 15 -26 11 -32 -4 -7 -3 -8 4
-4 13 8 75 -21 68 -32 -2 -4 16 -8 40 -9 l45 -2 -51 46 c-38 34 -50 52 -50 74
0 16 -4 29 -10 29 -5 0 -10 6 -10 13 0 33 -36 56 -97 63 -43 4 -64 11 -68 22
-5 14 -7 14 -15 2 -7 -11 -10 -6 -10 19 0 18 -13 56 -29 85 -77 135 -82 148
-75 196 4 25 11 51 17 58 18 22 -2 26 -38 7 -51 -28 -80 -71 -67 -100 11 -23
7 -35 -11 -35 -5 0 -7 9 -4 20 5 18 4 18 -20 3 -22 -15 -26 -15 -41 0 -11 11
-16 31 -15 59 2 42 -10 69 -31 67 -6 0 -24 -9 -41 -19z"/>
<path d="M4156 8025 c-9 -9 -16 -21 -16 -27 0 -6 -17 -30 -37 -53 -21 -23 -57
-67 -80 -97 -28 -37 -58 -63 -90 -79 -43 -21 -45 -24 -23 -27 34 -5 50 -22 21
-22 -13 0 -21 -5 -19 -12 2 -6 -15 -29 -39 -51 -24 -22 -43 -43 -43 -48 0 -13
47 -11 55 1 4 6 12 9 18 8 7 -1 24 5 38 15 27 18 54 15 62 -6 6 -15 -20 -165
-33 -195 -5 -13 -10 -35 -10 -50 0 -33 -16 -52 -43 -52 -25 0 -182 -160 -191
-193 -5 -21 -11 -24 -50 -22 -25 0 -48 4 -51 7 -10 10 -10 171 0 198 8 23 7
24 -7 9 -19 -18 -46 -123 -50 -188 l-3 -45 44 -13 c65 -19 91 -47 91 -100 0
-24 4 -43 8 -43 13 0 62 95 62 119 0 12 7 24 15 27 8 4 15 12 15 18 0 17 58
58 65 46 3 -6 18 -10 32 -10 24 0 25 3 20 36 -9 55 -3 61 58 58 30 -2 55 1 55
5 0 5 -9 20 -20 34 -16 20 -18 30 -11 44 10 17 34 96 36 118 1 6 5 21 10 35 4
14 7 39 7 57 -1 21 15 62 43 115 25 46 45 92 45 103 0 27 47 125 59 125 5 0
11 -19 13 -42 2 -30 8 -43 17 -43 19 0 73 103 64 119 -4 6 -6 18 -5 27 2 9 -4
22 -13 29 -8 7 -15 19 -15 27 0 12 -3 13 -14 4 -10 -9 -20 -5 -43 19 -28 29
-32 30 -47 15z"/>
<path d="M8666 6836 c-9 -14 -16 -35 -16 -46 0 -12 -4 -19 -10 -15 -17 11 -39
-39 -38 -90 0 -27 1 -76 1 -107 0 -46 4 -59 18 -63 10 -3 21 -19 24 -35 l6
-30 29 21 c23 18 31 19 50 9 15 -8 20 -8 16 -1 -4 6 0 11 10 11 13 0 14 3 5
14 -9 10 -9 15 -1 18 18 6 24 85 10 128 -10 29 -22 42 -52 56 -32 14 -39 22
-35 38 3 12 10 38 15 58 13 50 -7 71 -32 34z"/>
<path d="M3216 6678 c-8 -13 -17 -47 -20 -77 -5 -58 -10 -66 -41 -74 -18 -4
-17 -5 3 -6 25 -1 26 -26 1 -26 -10 0 -14 -13 -13 -47 0 -56 19 -94 48 -101
11 -2 28 -8 38 -11 11 -5 18 -1 23 13 3 11 9 20 13 20 27 -4 41 3 35 17 -4 11
1 22 13 31 16 11 16 15 5 23 -12 7 -12 12 2 34 19 28 22 62 7 71 -5 3 -10 17
-10 30 0 12 -7 25 -15 29 -8 3 -15 13 -15 23 0 16 -43 73 -55 73 -3 0 -11 -10
-19 -22z"/>
<path d="M3520 3704 c0 -3 27 -62 59 -129 116 -243 232 -408 415 -591 256
-255 510 -383 911 -458 92 -17 256 -39 260 -34 2 2 -60 170 -137 373 -76 204
-150 399 -163 435 -13 36 -30 83 -38 105 -8 22 -21 43 -29 47 -7 4 -101 21
-208 38 -248 40 -621 115 -864 174 -197 48 -206 50 -206 40z"/>
<path d="M8345 3664 c-282 -72 -640 -146 -984 -202 l-105 -17 -173 -464 c-96
-255 -172 -465 -169 -468 8 -9 229 27 354 58 344 84 576 207 805 428 162 156
282 322 391 538 73 147 83 174 64 172 -7 -1 -89 -21 -183 -45z"/>
<path d="M5161 3329 c17 -46 37 -100 44 -121 7 -20 34 -87 58 -150 57 -143 92
-234 165 -428 l59 -155 79 -8 c85 -9 966 -2 999 8 16 5 40 58 112 248 51 133
113 296 138 362 77 200 115 308 111 313 -3 2 -78 -3 -168 -12 -308 -30 -616
-39 -916 -27 -249 10 -494 28 -655 47 l-58 7 32 -84z"/>
<path d="M4663 1873 c-4 -10 -21 -60 -38 -111 l-32 -94 24 -11 c58 -26 111 32
120 131 5 55 4 60 -22 80 -34 27 -44 27 -52 5z"/>
<path d="M6318 1684 c-4 -7 26 -485 31 -513 2 -10 94 9 110 23 22 20 38 71 47
147 12 100 -40 286 -90 328 -19 16 -92 27 -98 15z"/>
<path d="M6258 11963 c28 -62 72 -101 59 -54 -3 14 -1 18 9 14 8 -3 26 6 41
21 26 26 53 34 53 16 0 -5 -4 -10 -10 -10 -5 0 -10 -7 -10 -15 0 -8 -5 -15
-11 -15 -15 0 -69 -52 -69 -67 0 -7 -7 -13 -15 -13 -11 0 -15 -11 -15 -40 0
-36 2 -40 26 -40 14 0 39 12 55 28 16 15 31 25 33 22 3 -3 15 5 28 17 36 34
79 39 102 14 20 -22 46 -28 46 -12 0 5 -6 11 -12 13 -7 3 6 16 30 29 23 13 42
30 42 36 0 9 13 6 39 -8 30 -16 44 -18 59 -10 14 8 30 6 61 -6 35 -14 45 -14
69 -3 58 29 91 38 95 26 3 -8 8 -7 18 2 7 6 23 12 36 12 13 0 23 4 23 8 0 8
20 15 109 40 13 4 26 13 29 20 3 9 -95 12 -467 12 l-471 0 18 -37z"/>
<path d="M5020 272 c0 -4 4 -12 10 -18 6 -6 -4 -28 -29 -62 -46 -61 -55 -84
-47 -118 6 -22 11 -25 43 -22 49 4 52 -15 6 -35 -38 -15 -37 -15 75 -16 92 -1
112 2 112 14 0 7 8 18 17 23 15 9 15 13 -4 58 -12 27 -30 53 -42 59 -12 5 -21
15 -21 21 0 7 -16 21 -35 33 -19 11 -35 26 -35 32 0 12 -29 38 -42 39 -5 0 -8
-4 -8 -8z"/>
<path d="M10083 166 c-34 -17 -43 -26 -43 -48 0 -20 8 -31 28 -42 47 -24 86
-28 107 -12 27 21 45 20 45 -3 0 -24 25 -45 45 -37 8 3 15 14 15 25 0 13 8 21
23 23 17 2 23 11 25 38 4 41 -19 63 -56 53 -17 -4 -23 -2 -18 5 10 16 -29 24
-57 11 -18 -8 -30 -8 -45 0 -11 6 -22 10 -24 10 -2 -1 -22 -11 -45 -23z"/>
<path d="M10595 135 c-36 -17 -101 -19 -110 -5 -10 16 -35 -8 -35 -32 0 -17 5
-20 29 -15 20 4 31 2 34 -7 3 -8 32 -28 64 -45 48 -27 66 -31 106 -28 31 3 53
11 62 23 17 23 18 32 5 71 -18 50 -89 68 -155 38z"/>
<path d="M11973 127 c-18 -30 -99 -65 -166 -72 -38 -4 -98 -15 -135 -25 -36
-10 -71 -16 -78 -13 -6 2 -15 0 -19 -6 -4 -8 59 -11 209 -11 l216 0 0 70 c0
67 -9 86 -27 57z"/>
</g>
</svg>
